<?xml version="1.0" encoding="utf-8"?>
<!-- Generator: Adobe Illustrator 23.0.3, SVG Export Plug-In . SVG Version: 6.00 Build 0)  -->
<svg version="1.1" xmlns="http://www.w3.org/2000/svg" xmlns:xlink="http://www.w3.org/1999/xlink" x="0px" y="0px"
	 viewBox="0 0 522.9 530.5" style="enable-background:new 0 0 522.9 530.5;" xml:space="preserve">
<style type="text/css">
	.st0{fill:none;stroke:#202124;stroke-miterlimit:10;}
	.st1{fill:#FFFFFF;stroke:#202124;stroke-width:0.75;stroke-miterlimit:10;}
	.st2{fill:#e63946;}
	.st3{fill:#202124;}
	.st4{fill:#eb6e78;}
	.st5{fill:#FFFFFF;stroke:#202124;stroke-miterlimit:10;}
	.st6{fill:#FFFFFF;}
</style>
<g id="background_details">
	<g id="table_line">
		<line class="st0" x1="11.9" y1="453.8" x2="481.3" y2="453.8"/>
	</g>
	<g id="books">
		<rect x="27.2" y="443.9" class="st1" width="78.4" height="9.8"/>
		<rect x="19.2" y="437.8" class="st1" width="76.9" height="6.1"/>
		<rect x="23.3" y="431.4" class="st2" width="77.8" height="6.2"/>
		<rect x="23.3" y="428.7" class="st1" width="82.3" height="2.7"/>
	</g>
	<g id="coffee">
		<path class="st1" d="M350,440.4c0.7-0.9,18.4-9.7,18.4-9.7l21.1,8.8l-12.9,10.7L350,440.4z"/>
		<polygon class="st3" points="379.7,442.6 364.2,442.6 358.9,411.8 384.5,411.8 		"/>
		<ellipse class="st1" cx="371.7" cy="411.9" rx="12.8" ry="4.5"/>
		<path class="st1" d="M382.1,409.8c-1.3,1-4.5,3.1-9.2,3.4c-6.1,0.4-10.4-2.6-11.6-3.4c0-1.4,0.1-2.9,0.1-4.3
			c2.7-0.6,6.2-1.1,10.3-1c4,0.1,7.5,0.7,10.1,1.3C381.9,407.2,382,408.5,382.1,409.8z"/>
		<ellipse class="st1" cx="371.7" cy="406.2" rx="10.4" ry="4.8"/>
	</g>
	<g id="tab_2">
		<rect x="0.4" y="0.4" class="st1" width="367.2" height="333.2"/>
	</g>
	<g id="tab">
		<rect x="310.2" y="219.5" class="st1" width="212.3" height="129.4"/>
		<rect x="309.8" y="219.2" class="st4" width="213.1" height="21.4"/>
		<path class="st0" d="M321,297.2c7.3-14.2,14.5-28.3,21.8-42.5c8.8,24.5,17.6,48.9,26.4,73.4c8.3-12.8,16.6-25.6,24.9-38.4
			c7.5,6.6,15,13.1,22.6,19.7c4.1-7.8,8.1-15.6,12.2-23.3c5.5,0.7,11.1,1.4,16.6,2.1c6.4,6.5,12.8,13,19.2,19.4
			c14.3-16.9,28.5-33.7,42.8-50.6"/>
		<line class="st0" x1="496" y1="261.6" x2="507.4" y2="257"/>
		<line class="st0" x1="507.4" y1="270.4" x2="507.4" y2="257"/>
	</g>
</g>
<g id="puzzle">
	<g id="puzzle_4">
		<path class="st2" d="M155,42l13.4,42.2c-0.1,0-0.2,0-0.3,0.1c-9.6,3.1-14.9,13.3-11.9,23c3.1,9.6,13.3,14.9,23,11.9
			c0.1,0,0.2-0.1,0.3-0.1l13.4,42.2l44.5-14.2c3.3,9.3,13.3,14.3,22.8,11.3c9.4-3,14.7-12.9,12-22.4l39.9-12.7L274.2,4.1L155,42z"/>
	</g>
	<g id="puzzle_3">
		<path class="st5" d="M130.1,105c0-10.1,8.2-18.3,18.3-18.3V42.5H23.3v125.1h45.3c0-0.1,0-0.2,0-0.4c0-10.1,8.2-18.3,18.3-18.3
			s18.3,8.2,18.3,18.3c0,0.1,0,0.2,0,0.4h43.2v-44.3C138.3,123.3,130.1,115.1,130.1,105z"/>
	</g>
	<g id="puzzle_2">
		<path class="st5" d="M130.1,236.4c0-10.1,8.2-18.3,18.3-18.3v-50.8h-43.2c0-0.1,0-0.3,0-0.4c0-10.1-8.2-18.3-18.3-18.3
			s-18.3,8.2-18.3,18.3c0,0.1,0,0.3,0,0.4H23.3v125.1h125.1v-37.7C138.3,254.7,130.1,246.5,130.1,236.4z"/>
	</g>
	<g id="puzzle_1">
		<path class="st5" d="M231.9,167.5c-0.3,9.9-8.3,17.8-18.3,17.8s-18-7.9-18.3-17.8h-46.7v50.7c-0.1,0-0.2,0-0.3,0
			c-10.1,0-18.3,8.2-18.3,18.3s8.2,18.3,18.3,18.3c0.1,0,0.2,0,0.3,0v37.9h125.1V167.5H231.9z"/>
	</g>
</g>
<g id="character">
	<g id="Layer_19">
		<path class="st6" d="M297.3,405.1c-0.7-1-0.7-2.8-0.6-6.3c0-1.6,0.1-3.7,0.5-6.7c0.1-1.2,0.6-4.9,1.9-8.9c0.4-1.1,0.9-2.4,2.2-3.3
			c0.9-0.6,1.8-0.7,2.4-0.7c-0.2,3.7,0.1,4.6,0.4,4.7c0.8,0.2,2.7-5.1,3.1-6.3c1.4-4.1,2-7.4,2.8-7.3c0.2,0,0.2,0.1,1.1,1.4
			c1,1.3,1,1.3,1.2,1.6c0.3,0.6,0.8,1.6,0.6,3.4c0.3,0.6,0.8,1.6,1.1,2.8c0.2,0.6,0.8,2.8,0.3,6.7c-0.3,2.6-0.8,4.5-1.6,7.2
			c-0.6,1.8-1.2,3.9-2.4,6.4c-1.9,4.1-2.8,6.1-4.7,7.1C303,407.9,299,407.3,297.3,405.1z"/>
		<path class="st6" d="M266.2,367.3c0.8,0.9,1.9,2.2,3.1,3.8c3.8,5.1,6.2,9.9,8.7,16.1c2.3,5.7,5.3,13.5,8,23.4
			c0.9-1.4,1.7-2.6,2.3-3.5c2-2.7,3.5-4.8,6.1-6.6c1.3-0.9,2.4-1.5,3.2-1.8c1-0.1,2.4,0,3.9,0.4c3.3,1,5.2,3.3,5.9,4.2
			c-0.1,2.6-0.2,6.3-0.7,10.6c-1.3,11.1-3.8,19.5-5.9,26.1c-2.2,6.9-1.8,4.1-5.4,14.8c-1.6,4.8-3.4,10.1-7.6,14.8
			c-1.8,2-3.6,3.4-5.9,3.3c-1.5-0.1-2.7-0.8-3.4-1.4c-1.5-1.2-3.7-3-6.1-5.5c-1.2-1.3-5-5.4-10.1-15c-2.2-4.2-5.5-10.8-8.7-19.9
			c-2.3-6.5-3.9-12.8-4.5-15.7C245.6,396.4,260.9,374.4,266.2,367.3z"/>
		<g>
			<g>
				<path class="st3" d="M265.9,367.6c7.5,8.6,11.9,19.1,15.4,29.9c3.6,10.8,6.8,21.8,10.1,32.7c0.1,0.5,0.9,0.3,0.7-0.2
					c-3.6-12-7.1-24.1-11.1-35.9c-3.4-9.8-7.7-19.2-14.6-27C266.1,366.7,265.6,367.2,265.9,367.6L265.9,367.6z"/>
			</g>
		</g>
		<g>
			<g>
				<path class="st3" d="M249.8,419.7c5.4,18.6,13.1,40.4,29.2,52.4c0.4,0.3,0.8-0.4,0.4-0.6c-15.8-11.9-23.5-33.6-28.8-52
					C250.4,419.1,249.7,419.3,249.8,419.7L249.8,419.7z"/>
			</g>
		</g>
		<g>
			<g>
				<path class="st3" d="M286.4,410.8c2.8-4.6,6.4-8.5,10.6-11.8c0.4-0.3-0.2-0.8-0.5-0.5c-4.3,3.3-7.9,7.4-10.7,12
					C285.5,410.9,286.1,411.2,286.4,410.8L286.4,410.8z"/>
			</g>
		</g>
		<g>
			<g>
				<path class="st3" d="M297.8,399.1c3.8-0.2,7.3,1.4,9.5,4.4c0.3,0.4,0.9,0,0.6-0.4c-2.4-3.2-6.1-5-10.2-4.8
					C297.3,398.4,297.3,399.1,297.8,399.1L297.8,399.1z"/>
			</g>
		</g>
		<g>
			<g>
				<path class="st3" d="M279.9,473c4.6,0.7,7.7-1.9,10-5.6c3.6-5.9,6.2-12.7,8.6-19.1c5.2-14.1,8.4-28.7,9.8-43.7
					c0-0.5-0.7-0.5-0.8,0c-1.1,11.9-3.3,23.6-6.9,35c-1.8,5.7-3.8,11.2-6.2,16.7c-2.5,5.8-6.2,17.3-14.4,16
					C279.7,472.2,279.5,473,279.9,473L279.9,473z"/>
			</g>
		</g>
		<g>
			<g>
				<path class="st3" d="M296.8,398.1c0.5-3.7,0.5-17.7,5.9-18.3c0.5-0.1,0.5-0.8,0-0.8c-6.3,0.7-6.1,14.6-6.6,19.1
					C296,398.6,296.8,398.5,296.8,398.1L296.8,398.1z"/>
			</g>
		</g>
		<g>
			<g>
				<path class="st3" d="M303.8,381.4c0,0.8,0,1.6,0,2.4c0,0.5,0.8,0.5,0.8,0c0-0.8,0-1.6,0-2.4
					C304.5,380.9,303.8,380.9,303.8,381.4L303.8,381.4z"/>
			</g>
		</g>
		<g>
			<g>
				<path class="st3" d="M304.8,383.9c2.6-4.1,3.9-9.2,5.6-13.7c0.2-0.5-0.6-0.6-0.7-0.2c-1.7,4.4-3,9.5-5.5,13.5
					C303.9,383.9,304.6,384.3,304.8,383.9L304.8,383.9z"/>
			</g>
		</g>
		<g>
			<g>
				<path class="st3" d="M310.5,370.2c1,4.1,0.7,8.1-0.7,12c-0.2,0.5,0.6,0.7,0.7,0.2c1.4-4,1.7-8.2,0.7-12.4
					C311.1,369.5,310.4,369.7,310.5,370.2L310.5,370.2z"/>
			</g>
		</g>
		<g>
			<g>
				<path class="st3" d="M311.7,372.4c1.3,4.1,1.2,8.3-0.2,12.4c-0.2,0.5,0.6,0.7,0.7,0.2c1.5-4.2,1.5-8.5,0.2-12.8
					C312.3,371.7,311.6,371.9,311.7,372.4L311.7,372.4z"/>
			</g>
		</g>
		<g>
			<g>
				<path class="st3" d="M313.5,377.5c0.6,3.6,0.3,7.1-0.9,10.5c-0.2,0.5,0.6,0.7,0.7,0.2c1.3-3.6,1.6-7.2,0.9-10.9
					C314.1,376.8,313.4,377,313.5,377.5L313.5,377.5z"/>
			</g>
		</g>
		<g>
			<g>
				<path class="st3" d="M314,382.8c0.6,7.5-3.6,14.9-6.3,21.6c-0.2,0.4,0.5,0.6,0.7,0.2c2.7-6.8,6.9-14.3,6.4-21.8
					C314.7,382.3,314,382.3,314,382.8L314,382.8z"/>
			</g>
		</g>
	</g>
	<g id="torso">
		<path class="st6" d="M153,360.5c-1.1,2.3-2.6,5.7-3.5,10c-1,4.9-1,8.7-0.9,11c0.4,14.5,0.6,21.7,1.8,29c0.5,3.4,2.6,16.3,8.8,34.7
			c4,11.8,10.3,27.8,20.4,45.7c6.5,3,18.6,7.5,34.1,7.1c21.4-0.5,36.6-9.8,42.7-13.9c0.7-2.5,1.6-5.9,2.6-9.9
			c2.1-8.7,4.4-19.5,6.6-35.9c3.2-23.6,4.8-35.3,3.7-50.1c-0.7-8.9-2-16.2-3.1-21c-1.1-0.6-2.8-1.5-4.8-2.5
			c-15-7.7-27.7-10.7-30.4-11.3c-6.5-1.5-19-3.9-34.9-3c-17.1,0.9-30,5.1-35.5,7.1C157.4,358.6,154.8,359.7,153,360.5z"/>
		<g>
			<g>
				<path class="st3" d="M153.1,360.8c35.7-15.5,77.6-13.1,111.4,6.1c0.4,0.2,0.8-0.4,0.4-0.6c-34-19.4-76.2-21.7-112.2-6.1
					C152.3,360.4,152.7,361,153.1,360.8L153.1,360.8z"/>
			</g>
		</g>
		<g>
			<g>
				<path class="st3" d="M149,370.6c-4.4,37.8,7.3,74.8,23.7,108.4c0.2,0.4,0.9,0.1,0.6-0.4c-16.3-33.5-28-70.4-23.6-108
					C149.8,370.1,149.1,370.1,149,370.6L149,370.6z"/>
			</g>
		</g>
		<g>
			<g>
				<path class="st3" d="M266.9,370.3c3.1,18.4,2.4,37.1,0.1,55.6c-2.3,18.1-5.1,36.7-9.9,54.2c-0.1,0.5,0.6,0.7,0.7,0.2
					c4.9-17.6,7.6-36.3,10-54.4c2.4-18.5,3.1-37.3-0.1-55.8C267.6,369.6,266.8,369.8,266.9,370.3L266.9,370.3z"/>
			</g>
		</g>
	</g>
	<g id="head">
		<circle class="st3" cx="226.1" cy="326" r="18.8"/>
		<path class="st3" d="M224.6,310.7c1.3,0.4,3.6,1.4,5.5,3.5c3.7,4,3.5,9,3.4,10.6c-0.2,4.2-1.9,7.2-2.9,8.7
			C228.7,325.9,226.6,318.3,224.6,310.7z"/>
		<path class="st3" d="M226.1,311.2c-2.2-2.9-6.7-8.5-12.5-8.3c-6.7,0.2-12.7,8-14.2,15.1c-1.1,5.2,1,6.3-0.3,10
			c-2.9,8.1-14.1,6-19.9,13.7c-6.3,8.3-1.7,22.2,2.3,29.3c1.4,2.6,9.2,16.4,21.9,16.5c11.4,0.1,19-10.7,22.5-15.7
			C238.9,353.3,238,326.5,226.1,311.2z"/>
	</g>
	<g id="chair">
		<path class="st2" d="M264.8,530.5h-114c-6.6,0-12-5.4-12-12V375.6c0-6.6,5.4-12,12-12h114c6.6,0,12,5.4,12,12v142.9
			C276.8,525.1,271.4,530.5,264.8,530.5z"/>
	</g>
</g>
</svg>
