<?xml version="1.0" encoding="utf-8"?>
<!-- Generator: Adobe Illustrator 23.0.3, SVG Export Plug-In . SVG Version: 6.00 Build 0)  -->
<svg version="1.1" xmlns="http://www.w3.org/2000/svg" xmlns:xlink="http://www.w3.org/1999/xlink" x="0px" y="0px"
	 viewBox="0 0 587.5 425.5" style="enable-background:new 0 0 587.5 425.5;" xml:space="preserve">
<style type="text/css">
	.st0{fill:#FFFFFF;stroke:#2E2F32;stroke-miterlimit:10;}
	.st1{fill:#2E2F32;}
	.st2{fill:#e63946;}
	.st3{fill:#FFFFFF;}
</style>
<g id="background">
	<g id="board">
		<polygon class="st0" points="310.2,424.9 1,211.7 273.3,98.9 586.4,223 		"/>
		<path class="st1" d="M163.5,155.3C101.7,194.5,57,227,61.7,236.7c11,22.6,283.6-97.1,295.1-74c9.8,19.6-194,133-185,150.8
			c10.3,20.4,288.3-111.7,301.1-88.1c7.5,13.7-76.9,75.2-182.7,145.4c7.4,3.1,14.8,6.2,22.2,9.2C457.9,273.9,507.2,225.8,499.7,213
			c-15.2-26-260.6,94.6-271.5,73.6c-9.3-17.9,162.9-116.1,152.6-136.9c-12.3-24.8-272.3,86.1-280.3,68.4c-3.2-7,34.8-31.8,86.9-62
			C179.5,155.9,171.5,155.6,163.5,155.3z"/>
		<ellipse class="st0" cx="339.2" cy="191.7" rx="16.9" ry="8.9"/>
		<ellipse class="st0" cx="172.9" cy="206.4" rx="17.1" ry="10.6"/>
		<ellipse class="st0" cx="315.9" cy="270.2" rx="15.4" ry="8.3"/>
		<g>
			<g>
				<path class="st2" d="M169.6,160.4c0,14.3,0,28.5,0,42.8c0,1.9,3,1.9,3,0c0-14.3,0-28.5,0-42.8
					C172.6,158.5,169.6,158.5,169.6,160.4L169.6,160.4z"/>
			</g>
		</g>
		<g>
			<g>
				<path class="st2" d="M334,149.3c0,13,0,26,0,39c0,1.9,3,1.9,3,0c0-13,0-26,0-39C337,147.3,334,147.3,334,149.3L334,149.3z"/>
			</g>
		</g>
		<g>
			<g>
				<path class="st2" d="M311.1,231.6c0,11.4,0,22.9,0,34.3c0,1.9,3,1.9,3,0c0-11.4,0-22.9,0-34.3
					C314.1,229.6,311.1,229.6,311.1,231.6L311.1,231.6z"/>
			</g>
		</g>
		<path class="st2" d="M171.1,160.4c8.8-0.3,17.5-0.5,26.3-0.8c-0.9,1.8-1.8,3.7-2.8,5.5c1.3,1.9,2.6,3.9,3.9,5.8
			c-9.3,1-18.6,2-27.9,3C170.7,169.5,170.9,165,171.1,160.4z"/>
		<path class="st2" d="M334.8,149c6.5-2.6,13-5.3,19.5-7.9c-0.2,1.7-0.5,3.4-0.7,5.1c1.7,1.1,3.4,2.2,5.1,3.3
			c-7.6,3.4-15.1,6.9-22.7,10.3C335.7,156.1,335.3,152.5,334.8,149z"/>
		<path class="st2" d="M312.6,231.6c6.7-2.2,13.4-4.3,20-6.5c-1.1,2.2-2.2,4.5-3.4,6.7c1.5,1.1,2.9,2.2,4.4,3.4
			c-7,2.6-14,5.1-21,7.7C312.6,239.1,312.6,235.3,312.6,231.6z"/>
	</g>
	<g id="trophy">
		<path class="st0" d="M209.2,42.4h-9.9v-5.5c0-6.6-5.4-12-12-12h-30.1c-6.6,0-12,5.4-12,12v5.5h-8.6c-3.5,0-6.3,2.8-6.3,6.3v10.4
			c0,3.5,2.8,6.3,6.3,6.3h8.6V69c0,6.6,5.4,12,12,12h10.4v12.5c-6.9,0.5-12,2.1-12,4.1c0,2.4,7.2,4.3,16.1,4.3
			c8.9,0,16.1-1.9,16.1-4.3c0-2-5.1-3.6-12-4.1V81h11.6c6.6,0,12-5.4,12-12v-3.5h9.9c3.5,0,6.3-2.8,6.3-6.3V48.7
			C215.5,45.2,212.7,42.4,209.2,42.4z M145.2,61.3c-0.6,0.2-1.1,0.3-1.8,0.3h-2.7c-3.5,0-6.3-2.8-6.3-6.3v-2.7
			c0-3.5,2.8-6.3,6.3-6.3h2.7c0.6,0,1.2,0.1,1.8,0.3V61.3z M211.6,55.3c0,3.5-2.8,6.3-6.3,6.3h-2.7c-1.2,0-2.3-0.3-3.3-0.9V47.2
			c1-0.6,2.1-0.9,3.3-0.9h2.7c3.5,0,6.3,2.8,6.3,6.3V55.3z"/>
		<ellipse class="st0" cx="172.4" cy="31.9" rx="25.7" ry="9.3"/>
		<g>
			<g>
				<path class="st2" d="M117.3,32.7c6.4-5,5.5-15.8,4.4-22.9c-0.7,0.6-1.5,1.1-2.2,1.7c6.4,4.3,13.5,1.3,17.8-4.3
					c1.2-1.5-0.9-3.6-2.1-2.1c-3.5,4.5-8.8,7.5-14.2,3.8c-1.2-0.8-2.4,0.5-2.2,1.7c0.9,6.1,1.7,15.7-3.7,19.9
					C113.6,31.8,115.8,33.9,117.3,32.7L117.3,32.7z"/>
			</g>
		</g>
		<g>
			<g>
				<path class="st2" d="M109,66.4c4.9,5.9,6,13.9,2.7,20.8c-0.4,0.9-0.1,1.9,0.9,2.2c7.7,2.6,11.9,10.9,9.6,18.6
					c-0.2,0.7,0.3,1.7,1,1.8c4.5,0.7,8.2,2.8,11,6.5c1.1,1.5,3.7,0,2.6-1.5c-3.2-4.3-7.4-7-12.8-7.9c0.3,0.6,0.7,1.2,1,1.8
					c2.7-9.4-2.5-19.2-11.7-22.3c0.3,0.7,0.6,1.5,0.9,2.2c3.9-8.2,2.7-17.5-3.1-24.4C109.8,62.8,107.7,64.9,109,66.4L109,66.4z"/>
			</g>
		</g>
		<g>
			<g>
				<path class="st2" d="M187.7,120.6c2.4-8,11-9.4,18.3-9c1,0.1,1.6-1,1.4-1.9c-1.1-5.6,3.5-7.8,7.5-10.3c1.6-1,0.1-3.6-1.5-2.6
					c-5.4,3.4-10.3,6.4-8.9,13.6c0.5-0.6,1-1.3,1.4-1.9c-8.7-0.5-18.4,1.8-21.2,11.2C184.3,121.6,187.2,122.4,187.7,120.6
					L187.7,120.6z"/>
			</g>
		</g>
		<g>
			<g>
				<path class="st2" d="M192.8,2.3c4.2,9.4,15.3,7.9,23.5,5.9c-0.6-0.7-1.1-1.5-1.7-2.2c-3.8,8.5-0.1,17.5,8.9,20.4
					c1.8,0.6,2.6-2.3,0.8-2.9c-6.9-2.2-10.1-9.2-7.1-16c0.5-1.2-0.3-2.5-1.7-2.2C208.6,7,199,8.9,195.4,0.8
					C194.6-1,192,0.5,192.8,2.3L192.8,2.3z"/>
			</g>
		</g>
		<g>
			<g>
				<path class="st2" d="M232.8,48.3c-9.1,6.1-10.4,18.2-2.6,26c1.4,1.4,3.5-0.7,2.1-2.1c-6.3-6.4-5.5-16.2,2-21.3
					C235.9,49.8,234.4,47.2,232.8,48.3L232.8,48.3z"/>
			</g>
		</g>
	</g>
</g>
<g id="character">
	<g id="leg_right">
		<path class="st2" d="M479.6,341.7c-2.4,0.8-5,1.7-7.7,3c-5.2,2.4-9.5,5.1-12.8,7.6c10.3-0.1,20.6-0.2,31-0.3
			c-0.5-3.7-1-7.4-1.5-11C485.5,341.2,482.6,341.5,479.6,341.7z"/>
		<path class="st3" d="M477.4,220.3c4,40.9,8,81.8,12.1,122.7c-0.8,0.5-1.8,1.1-3.2,1.4c-3.7,0.8-6.7-0.9-7.6-1.4
			c-3.3-11-7.4-25.1-12.2-41.7c-8.2-28.3-11.4-39.7-14.1-55.5c-1.6-9.3-2.5-16.9-3.1-22C458.7,222.7,468,221.5,477.4,220.3z"/>
		<g>
			<g>
				<path class="st1" d="M477.6,223.2c3.8,40,7.7,79.9,11.5,119.9c0,0.5,0.8,0.5,0.8,0c-3.8-40-7.7-79.9-11.5-119.9
					C478.3,222.7,477.5,222.7,477.6,223.2L477.6,223.2z"/>
			</g>
		</g>
		<g>
			<g>
				<path class="st1" d="M453.9,253.8c7.1,30.1,15.3,59.9,24.4,89.4c0.1,0.5,0.9,0.3,0.7-0.2c-9.2-29.5-17.3-59.3-24.4-89.4
					C454.5,253.1,453.8,253.3,453.9,253.8L453.9,253.8z"/>
			</g>
		</g>
		<g>
			<g>
				<path class="st1" d="M479.2,344c2.7,1.2,5.6,1.4,8.5,0.5c0.5-0.1,0.3-0.9-0.2-0.7c-2.7,0.8-5.4,0.7-7.9-0.4
					C479.2,343.1,478.8,343.8,479.2,344L479.2,344z"/>
			</g>
		</g>
		<g>
			<g>
				<path class="st3" d="M476,343c0.7-2.1-2.4-2.8-3.1-0.9c-0.3,0.8,0,2.2,0.9,2.5c1.2,0.4,1.5-1,1.8-1.8c-0.2-0.1-0.5-0.1-0.7-0.2
					c0.1,1.1,0.8,5.8,3,4.4c1.6-1,0.5-3.7-1.1-4c-0.5-0.1-0.7,0.6-0.2,0.7c0.6,0.1,1.1,0.5,1.3,1.2c0.1,0.3,0.1,0.6,0,0.9
					c-0.8,0.5-1.3,0.4-1.4-0.2c-0.5-0.8-0.6-2.2-0.8-3.1c0-0.3-0.5-0.6-0.7-0.2c-0.1,0.1-0.1,0.2-0.2,0.4c-0.2,0.5,0,0.8-0.8,0.6
					c-0.4,0-0.6-0.1-0.5-0.5c-0.1-0.3,0-0.5,0.2-0.7c0.2-0.4,0.4-0.5,0.8-0.2c0.6-0.1,0.8,0.2,0.6,0.9
					C475.2,343.2,475.9,343.4,476,343L476,343z"/>
			</g>
		</g>
		<g>
			<g>
				<path class="st3" d="M468.1,346.9c0.8,0,1.4,0.5,1.7,1.2c0.2,0.5,0.9,0.3,0.7-0.2c-0.4-1-1.3-1.7-2.4-1.7
					C467.6,346.2,467.6,346.9,468.1,346.9L468.1,346.9z"/>
			</g>
		</g>
		<g>
			<g>
				<path class="st3" d="M469.7,345.5c1.1-0.1,1.6,0.9,1.8,1.8c0.1,0.5,0.8,0.3,0.7-0.2c-0.3-1.2-1.1-2.5-2.5-2.4
					C469.2,344.8,469.2,345.6,469.7,345.5L469.7,345.5z"/>
			</g>
		</g>
		<g>
			<g>
				<path class="st3" d="M471.6,344.5c0.8,0.3,1.4,1.1,1.4,2c0,0.5,0.8,0.5,0.8,0c-0.1-1.2-0.8-2.3-2-2.7
					C471.3,343.6,471.1,344.3,471.6,344.5L471.6,344.5z"/>
			</g>
		</g>
	</g>
	<g id="leg_left">
		<path class="st2" d="M450.6,343.1c-1.2,0.2-2.5,0.4-3.7,0.6c-8.5,1.7-15.4,5.1-20.7,8.6c11.6,0.5,23.3,1,34.9,1.5
			c-0.1-3.5-0.2-7-0.3-10.5C457.3,343.2,454,343.2,450.6,343.1z"/>
		<path class="st3" d="M437,234.7c4.6,36.2,9.1,72.4,13.7,108.6c0.4,0.7,1,1.4,1.9,2c3.3,2.3,7.5,0.5,8,0.3
			c1.1-10.7,2.2-21.4,3.2-32c3-30.3,5.9-60.7,8.6-91C460.6,226.6,448.8,230.6,437,234.7z"/>
		<g>
			<g>
				<path class="st1" d="M436.6,237.6c4.5,35.2,9.1,70.3,13.6,105.5c0.1,0.5,0.8,0.5,0.8,0c-4.5-35.2-9.1-70.3-13.6-105.5
					C437.3,237.2,436.5,237.2,436.6,237.6L436.6,237.6z"/>
			</g>
		</g>
		<g>
			<g>
				<path class="st1" d="M470.1,240.9c-3.2,34.5-6.5,69-9.7,103.5c0,0.5,0.7,0.5,0.8,0c3.2-34.5,6.5-69,9.7-103.5
					C470.9,240.5,470.2,240.5,470.1,240.9L470.1,240.9z"/>
			</g>
		</g>
		<g>
			<g>
				<path class="st1" d="M451.3,344.7c2.4,1.8,5.4,2.4,8.3,1.6c0.5-0.1,0.3-0.9-0.2-0.7c-2.7,0.8-5.5,0.2-7.7-1.5
					C451.3,343.8,450.9,344.5,451.3,344.7L451.3,344.7z"/>
			</g>
		</g>
		<g>
			<g>
				<path class="st3" d="M447.4,342.1c-0.1-0.9-0.7-2.1-1.8-1.9c-1.1,0.1-1.4,1.7-1.2,2.6c0.1,0.8,0.7,2,1.8,1.8
					c1.1-0.2,0.9-1.7,0.7-2.6c-0.1-0.4-0.8-0.3-0.7,0.1c0.1,1,0.7,7.3,3.1,5.8c0.7-0.4,0.7-1.6,0.6-2.2c-0.2-1.1-0.9-2-1.8-2.5
					c-0.4-0.2-0.8,0.4-0.4,0.6c0.7,0.4,1.2,0.9,1.4,1.7c0.1,0.4,0.1,0.8,0.1,1.2c-0.7,0.4-1.2,0.3-1.3-0.3c-0.8-1-0.7-3.1-0.9-4.3
					c-0.2,0-0.5,0.1-0.7,0.1c0,0.3,0.1,0.5,0.1,0.8c-0.7,0.7-1,0.6-1-0.1c-0.1-0.3-0.2-0.6-0.1-0.9c0-0.8,0.5-0.8,1.5,0.1
					C446.7,342.6,447.4,342.6,447.4,342.1L447.4,342.1z"/>
			</g>
		</g>
		<g>
			<g>
				<path class="st3" d="M436,347.3c0.8,0,1.4,0.4,1.6,1.2c0.1,0.5,0.9,0.3,0.7-0.2c-0.3-1-1.3-1.8-2.4-1.7
					C435.5,346.6,435.5,347.3,436,347.3L436,347.3z"/>
			</g>
		</g>
		<g>
			<g>
				<path class="st3" d="M437.8,346c0.7,0.2,1.2,0.6,1.5,1.3c0.2,0.4,0.8,0.1,0.6-0.4c-0.4-0.8-1.1-1.4-1.9-1.6
					C437.6,345.1,437.4,345.8,437.8,346L437.8,346z"/>
			</g>
		</g>
		<g>
			<g>
				<path class="st3" d="M440.7,344.6c1.3,0.3,2.2,1.5,2.1,2.8c0,0.5,0.7,0.5,0.8,0c0.1-1.7-1.1-3.2-2.7-3.5
					C440.5,343.8,440.3,344.5,440.7,344.6L440.7,344.6z"/>
			</g>
		</g>
	</g>
	<g id="torso">
		<path class="st3" d="M423.6,161.4c0.1,1.9,0.2,4.9,0.6,8.6c0.5,5.5,1.2,9.6,2.4,17.2c0.2,1,0.9,5.5,1.6,9.3
			c2.8,15.5,7.6,34.1,8.7,38.1c2.9,0.4,7,0.8,11.9,0.3c8.5-0.9,14.6-3.9,17.6-5.4c2.9-1.4,6.8-3.7,10.9-7.2
			c0.2-3.2,0.4-7.5,0.6-10.8c0.7-12.8,1-17.6,1.4-24.7c0.7-14.2,0.5-17.2,0.2-20.2c-0.7-6-1.9-10.9-2.9-14.3
			c-3.6-1.2-9.1-2.6-15.9-2.5c-6.3,0.1-10.9,1.5-17.4,3.5C438.3,154.8,431.4,157.3,423.6,161.4z"/>
		<g>
			<g>
				<path class="st1" d="M423.8,161.7c15.3-9.1,33-15.1,50.7-9.2c0.5,0.2,0.7-0.6,0.2-0.7c-17.8-6-35.8,0.1-51.2,9.3
					C423,161.3,423.3,162,423.8,161.7L423.8,161.7z"/>
			</g>
		</g>
		<g>
			<g>
				<path class="st1" d="M423.8,169.9c2.7,21.8,7,43.4,12.8,64.6c0.1,0.5,0.8,0.3,0.7-0.2c-5.7-21.2-10-42.7-12.7-64.4
					C424.5,169.5,423.7,169.5,423.8,169.9L423.8,169.9z"/>
			</g>
		</g>
		<g>
			<g>
				<path class="st1" d="M476.8,153.8c3,10.4,2.8,21.1,2.2,31.8c-0.6,11.2-1.3,22.5-1.9,33.7c0,0.5,0.7,0.5,0.8,0
					c0.7-11.8,1.4-23.7,2-35.5c0.5-10.2,0.5-20.3-2.3-30.2C477.4,153.2,476.7,153.4,476.8,153.8L476.8,153.8z"/>
			</g>
		</g>
		<g>
			<g>
				<path class="st1" d="M438.2,235.3c14,1,27.5-3.3,38.3-12.2c0.4-0.3-0.2-0.8-0.5-0.5c-10.7,8.8-24,13-37.7,12
					C437.7,234.5,437.7,235.3,438.2,235.3L438.2,235.3z"/>
			</g>
		</g>
	</g>
	<g id="hand_right">
		<path class="st3" d="M424.5,139.3c0.1,0.5,0.8,0.7,3.6,1.3c5.3,1.1,7.9,1.6,9.2,0.4c0.8-0.7,1.6-2.1,1.2-3.1
			c-0.8-2.2-6.5-2.5-10.5-1C426.7,137.3,424.3,138.4,424.5,139.3z"/>
		<g>
			<g>
				<path class="st1" d="M424.8,139.4c0.8-3.1,6.7-2.5,9-2.3c0.5,0,0.5-0.7,0-0.8c-2.8-0.1-8.8-0.8-9.8,2.9
					C424,139.7,424.7,139.9,424.8,139.4L424.8,139.4z"/>
			</g>
		</g>
		<g>
			<g>
				<path class="st1" d="M426.9,139.9c1.7-1.3,3.7-1.8,5.8-1.6c0.5,0,0.5-0.7,0-0.8c-2.2-0.2-4.4,0.4-6.2,1.7
					C426.1,139.5,426.5,140.2,426.9,139.9L426.9,139.9z"/>
			</g>
		</g>
		<g>
			<g>
				<path class="st1" d="M430,140.8c1.5-1.1,3.2-1.6,5.1-1.5c0.5,0,0.5-0.7,0-0.8c-2-0.1-3.9,0.4-5.5,1.6
					C429.2,140.5,429.6,141.1,430,140.8L430,140.8z"/>
			</g>
		</g>
	</g>
	<g id="hand_left">
		<path class="st3" d="M431.5,217.5c-0.4,0.7-1,1.7-1.3,3.1c-0.7,3,0.4,5.4,1,6.8c1.2,2.8,3.1,4.6,4.3,5.6c0-1.4,0-2.8-0.1-4.2
			c-0.1-2.7-0.1-5.5-0.2-8.1c2.6-1.3,3.6-2.9,4-3.8c0.2-0.5,0.8-1.7,0.4-2.2c-0.3-0.3-1.1-0.2-3.2,0.6
			C435.1,215.8,433.5,216.5,431.5,217.5z"/>
		<path class="st3" d="M422,162.2c-2.7,3.7-5.5,7.9-8.4,12.7c-2.3,3.8-0.2,2.7-7,12.9c0,0-3.5,6.3-6.7,15.5c-0.2,0.7-0.7,2-0.5,3.8
			c0.2,1.8,1.1,3.3,2.4,5c3,3.7,6.3,5.9,7.4,6.5c4.3,2.7,8.1,3.9,11.9,5.1c2.5,0.8,6,1.8,10.3,2.5c0.4-0.4,0.9-1,1.3-1.7
			c1.4-2.8,0.4-5.7,0.1-6.3c-1.3-0.9-2.8-1.9-4.5-3.3c-1.4-1.1-3.6-2.8-6.1-5.2c-1.8-1.7-3.7-3.6-5.8-5.9c0.9-1.1,2.5-2.9,4.5-5
			c3.6-3.7,5.4-5.1,10.1-9.7c3.3-3.2,4.9-4.9,5.8-6.5c0.5-1,2.8-5.7,1.4-10.4C436.4,166.6,429.9,162.4,422,162.2z"/>
		<g>
			<g>
				<path class="st1" d="M421.7,162c-9.2,12.8-16.6,26.6-22.2,41.3c-0.2,0.5,0.6,0.6,0.7,0.2c5.6-14.6,13-28.4,22.1-41.1
					C422.6,162,422,161.6,421.7,162L421.7,162z"/>
			</g>
		</g>
		<g>
			<g>
				<path class="st1" d="M432.1,187.6c-5.4,5.1-11.2,10.1-15.8,16c-0.3,0.4,0.2,0.9,0.5,0.5c4.6-5.9,10.4-10.9,15.8-16
					C433,187.8,432.5,187.2,432.1,187.6L432.1,187.6z"/>
			</g>
		</g>
		<g>
			<g>
				<path class="st1" d="M416.3,204.4c2.5,2.8,5.2,5.5,8,7.9c2.4,2.1,5.1,4.6,8,5.7c-0.5-0.2-0.6,0.6-0.2,0.7c0.1,0,0.2,0.1,0.3,0.1
					c0.1,0,0.3,0,0.4-0.1c0.1-0.1,0.1-0.2,0.2-0.2c0.2-0.2,0.1-0.4-0.1-0.6c-5.9-4-11.3-8.7-16.1-14.1
					C416.5,203.5,416,204.1,416.3,204.4L416.3,204.4z"/>
			</g>
		</g>
		<g>
			<g>
				<path class="st1" d="M400.3,210.8c3.6,5,8.3,8.5,13.9,10.9c2.7,1.2,5.6,2.1,8.5,2.9c2.5,0.7,6.6,2.3,9.2,2
					c0.2,0,0.4-0.2,0.4-0.4c0-0.1,0-0.1,0-0.2c0-0.2-0.1-0.3-0.3-0.4c-0.1,0-0.1,0-0.2,0c-0.5-0.1-0.7,0.6-0.2,0.7
					c-11.3-3-23.5-5.9-30.6-16C400.6,210,400,210.4,400.3,210.8L400.3,210.8z"/>
			</g>
		</g>
		<g>
			<g>
				<path class="st1" d="M432.1,217.4c0.6,3,0.5,5.9-0.3,8.8c-0.1,0.5,0.6,0.7,0.7,0.2c0.8-3.1,0.9-6.1,0.3-9.2
					C432.7,216.8,432,217,432.1,217.4L432.1,217.4z"/>
			</g>
		</g>
		<g>
			<g>
				<path class="st1" d="M433.7,217.1c0.7-0.3,1.3-0.7,2-1c0.6-0.3,2-1.2,2.6-1.1c0.5-0.2,0.7,0,0.6,0.7c0.4,0.4,0.4,0.7,0.1,0.9
					c-0.1,0.3-0.6,0.6-0.8,0.8c-0.6,0.6-1.2,1.2-1.8,1.8c-0.3,0.3,0.2,0.9,0.5,0.5c1-1,2.3-1.9,3.1-3.1c0.4-0.6,0.5-1.4-0.1-2
					c-0.6-0.6-1.6-0.5-2.3-0.2c-1.4,0.6-2.8,1.4-4.2,2C432.9,216.6,433.3,217.3,433.7,217.1L433.7,217.1z"/>
			</g>
		</g>
		<g>
			<g>
				<path class="st1" d="M430.9,227.6c0.9,1.7,2,3.2,3.4,4.4c0.4,0.3,0.9-0.2,0.5-0.5c-1.4-1.2-2.5-2.6-3.3-4.3
					C431.3,226.8,430.6,227.2,430.9,227.6L430.9,227.6z"/>
			</g>
		</g>
	</g>
	<g id="head">
		<path class="st3" d="M436.3,142.4c-0.7,1.4-0.6,3.1-0.6,3.7c0,1.1,0.1,3.2,1.6,4.9c0.4,0.4,1.6,1.8,3.6,2c1.2,0.1,2.1-0.2,2.6-0.4
			c0.7,0.8,1.4,1.6,2.2,2.5c1.1-1.8,2.6-4.6,3.3-8.4c0.6-3.2,1.1-5.9-0.4-7.5C446,136.4,438.2,138.3,436.3,142.4z"/>
		<path class="st1" d="M444,141c-0.5,0.4-1.5,1.2-3,1.7c-0.6,0.2-2,0.5-3.7,0c-1-0.3-2.5-0.7-3.2-2c-0.6-1.1-0.2-2.3-0.2-2.6
			c0.6-2.1,2.9-3.6,5.8-4.1c0-1,0.2-2.5,0.9-4.2c0.5-1.2,1.3-3.4,3.5-5c0.9-0.7,3.1-2.3,5.4-1.7c2,0.5,2,2.1,4.6,3.4
			c1.3,0.7,2.3,0.8,4.4,1.1c4.8,0.7,5.8-0.3,9.3,0.3c1.1,0.2,4,0.7,7,2.7c1,0.7,4.1,2.9,5.6,6.9c0.8,2.3,0.8,4.1,0.8,7.1
			c0,1.9-0.1,4-0.8,6.6c-1.4,4.8-4.4,7.8-5.2,8.6c-1.2,1.1-6,5.8-13.2,5.4c-5.9-0.3-9.8-3.7-11.1-4.9c-4.9-4.5-6-10.3-6.4-12.8
			C443.8,144.9,443.9,142.6,444,141z"/>
		<path class="st3" d="M440,134.8c-1,0.9-1.3,2.4-0.6,3.6c0.6,1,1.7,1.6,2.9,1.4c-0.5-0.7-1-1.5-1.4-2.6
			C440.5,136.3,440.2,135.5,440,134.8z"/>
		<g>
			<g>
				<path class="st1" d="M435.9,143c-1.2,4.2,0,8.8,4.4,10.4c0.5,0.2,0.6-0.6,0.2-0.7c-4-1.5-4.9-5.8-3.9-9.5
					C436.7,142.7,436,142.5,435.9,143L435.9,143z"/>
			</g>
		</g>
		<g>
			<g>
				<path class="st1" d="M441.7,141.3c-2.2,1.2-6.6,2-7.5-1.3c-0.9-3.4,2.9-5.2,5.6-5.7c0.5-0.1,0.3-0.8-0.2-0.7
					c-3.2,0.5-7.4,3.1-6,7c1.3,3.4,5.9,2.7,8.5,1.3C442.5,141.7,442.2,141.1,441.7,141.3L441.7,141.3z"/>
			</g>
		</g>
		<g>
			<g>
				<path class="st1" d="M443.7,140.7c-8.1-6.1-0.2-22.2,9.4-14.8c2.1,1.6,3.2,3.1,6.1,3.1c5.2,0.1,9-1.7,14,1.1
					c5.4,3,8.3,8.8,8,14.8c-0.5,9.8-8.5,20.6-19.1,20.1c-11.9-0.6-18-12.3-17.7-23c0-0.5-0.7-0.5-0.8,0
					c-0.3,11.9,7.7,25.4,21.3,23.6c11.2-1.4,19.2-15.3,16.5-25.9c-1.4-5.5-5.6-9.9-11-11.6c-2.8-0.9-5.3-0.5-8.2-0.4
					c-3.9,0.1-6.7-0.7-9.5-3.2c-0.7-0.7-1.2-1.1-2.1-1.5c-4.5-1.7-8.7,2.6-10.3,6.4c-1.9,4.4-0.9,9.1,3,12
					C443.7,141.6,444.1,140.9,443.7,140.7L443.7,140.7z"/>
			</g>
		</g>
	</g>
</g>
</svg>
