<?xml version="1.0" encoding="utf-8"?>
<!-- Generator: Adobe Illustrator 23.0.3, SVG Export Plug-In . SVG Version: 6.00 Build 0)  -->
<svg version="1.1" xmlns="http://www.w3.org/2000/svg" xmlns:xlink="http://www.w3.org/1999/xlink" x="0px" y="0px"
	 viewBox="0 0 570.6 497.4" style="enable-background:new 0 0 570.6 497.4;" xml:space="preserve">
<style type="text/css">
	.st0{fill:#457b9d;}
	.st1{fill:#FFFFFF;}
	.st2{fill:#192332;}
	.st3{fill:none;}
	.st4{fill:#fff;}
	.st5{fill:#a8dadc;}
	.st6{fill:#457b9d27;}
	.st7{fill:none;stroke:#FFFFFF;stroke-miterlimit:10;}
	.st8{fill:#e63946;}
	.st9{fill:none;stroke:#202124;stroke-miterlimit:10;}
	.st10{fill:#457b9d27;}
	.st11{fill:#B1CEFC;stroke:#6D6D6D;stroke-miterlimit:10;}
	.st12{fill:#F9F9F9;}
	.st13{fill:#1d3557;}
</style>
<g id="guy">
	<g id="leg_left_1_">
		<path class="st0" d="M443.5,444.7c-3.5,8.1-7.1,16.2-10.6,24.4c23.7,14.4,48.4,27.4,52.8,22.2c2.1-2.5,0.9-10.5-24.7-40.3
			C455.2,448.9,449.3,446.8,443.5,444.7z"/>
		<g>
			<g>
				<path class="st1" d="M461.2,455.8c-2-1.7-6-1.3-6.8,1.6c-0.3,1.3,0.4,2.4,1.7,2.3c1.8-0.1,3.5-1.1,4.7-2.5
					c0.3-0.4-0.2-0.9-0.5-0.5c-0.7,0.8-1.6,1.5-2.7,1.9c-0.4,0.1-1.2,0.5-1.6,0.3c-1.1-0.3-1-1.4-0.5-2.1c1.2-1.6,3.7-1.8,5.2-0.5
					C461,456.7,461.5,456.1,461.2,455.8L461.2,455.8z"/>
			</g>
		</g>
		<g>
			<g>
				<path class="st1" d="M461.1,456c0.4-1.2,1.6-1.9,2.8-2.2c0.8-0.2,1.8-0.2,2.4,0.4c0.8,0.7,0.7,1.7-0.2,2.2
					c-1.4,0.9-3.2,0.2-4.7,1.1c-0.4,0.2,0,0.9,0.4,0.6c1.5-0.9,3.4-0.2,4.8-1.2c1-0.7,1.2-1.9,0.6-2.8c-1.7-2.6-6-0.7-6.8,1.7
					C460.3,456.3,461,456.5,461.1,456L461.1,456z"/>
			</g>
		</g>
		<g>
			<g>
				<path class="st1" d="M460.7,462c2.3-1.3,4.8-1.6,7.3-0.8c0.5,0.1,0.7-0.6,0.2-0.7c-2.7-0.8-5.5-0.5-7.9,0.9
					C459.9,461.6,460.3,462.3,460.7,462L460.7,462z"/>
			</g>
		</g>
		<g>
			<g>
				<path class="st1" d="M463.2,466.5c2.1-1.5,4.6-1.9,7-1.1c0.5,0.2,0.7-0.6,0.2-0.7c-2.6-0.9-5.4-0.5-7.6,1.1
					C462.5,466.2,462.8,466.8,463.2,466.5L463.2,466.5z"/>
			</g>
		</g>
		<g>
			<g>
				<path class="st1" d="M466.6,471c2.3-1.5,5-1.8,7.6-0.8c0.5,0.2,0.6-0.6,0.2-0.7c-2.7-1-5.7-0.7-8.1,0.9
					C465.8,470.6,466.2,471.3,466.6,471L466.6,471z"/>
			</g>
		</g>
		<g>
			<g>
				<path class="st1" d="M470.2,478c3.2-1.9,6.8-2.4,10.4-1.5c0.5,0.1,0.7-0.6,0.2-0.7c-3.8-1-7.6-0.4-11,1.6
					C469.4,477.6,469.8,478.2,470.2,478L470.2,478z"/>
			</g>
		</g>
		<g>
			<g>
				<path class="st1" d="M435.3,466.5c11,6.3,21.8,12.9,32.4,19.9c0.4,0.3,0.8-0.4,0.4-0.6c-10.6-7-21.4-13.7-32.4-19.9
					C435.2,465.6,434.8,466.2,435.3,466.5L435.3,466.5z"/>
			</g>
		</g>
		<path class="st2" d="M474.1,216.4c2.4,5.1,6.3,13.4,11.3,23.4c6.6,13.3,12.9,25.8,21.6,41.7c9.1,16.5,12.4,21.4,15.7,32.2
			c1.7,5.7,3.7,12.4,3.8,21.4c0,4.9-0.5,14.4-7.3,31c-6.5,15.7-14.1,26.4-17.9,31.8c-9.1,12.9-21.2,30.5-37.8,55
			c-1.8-1.5-4.3-3.1-7.3-4.6c-5-2.4-9.5-3.2-12.7-3.6c1-3,2.5-7.5,4.1-13.1c3.4-11.8,5.6-22.2,10.9-53.4c1.1-6.3,2.5-14.5,4.1-24
			c-0.2-3.2-0.8-8.1-2.7-13.8c-2.4-7.2-5.3-10.7-12.5-23c-2.7-4.7-5.3-9.4-8-14.1c-9.6-16.9-10.4-18.5-14-24.7
			c-3.3-5.7-7.9-13.8-13.8-23.7c1.1-8.1,3.9-13.8,6.2-17.5C434.1,212.3,472.5,216.3,474.1,216.4z"/>
		<g>
			<path class="st3" d="M476.6,223.2c13.4,25.2,26.5,50.5,39.4,76c3.6,7.2,7.3,14.5,9.1,22.3c3.9,16.7-0.8,34.2-8.2,49.6
				c-6.8,14.1-15.7,27.1-24.6,39.9c-9.3,13.5-18.6,26.9-27.8,40.4"/>
		</g>
		<g>
			<path class="st3" d="M417.8,265.1c12.5,22.1,24.9,44.1,37.4,66.2c2.3,4.1,4.7,8.3,5.9,12.9c2,7.6,0.7,15.7-0.6,23.4
				c-4.4,24.9-9.5,49.6-15.5,74.2"/>
		</g>
		<g>
			<path class="st3" d="M445.6,444.2c5.6,0.8,10.9,3.5,14.9,7.5"/>
		</g>
	</g>
	<g id="leg_right_1_">
		<path class="st0" d="M348.1,437.2c-2.8,6-5.7,12.1-8.5,18.1c41.9,19.2,64.1,26.8,66.5,22.6c2.1-3.6-10.7-16.1-38.5-37.5
			C361.1,439.4,354.6,438.3,348.1,437.2z"/>
		<g>
			<g>
				<path class="st1" d="M369.7,443.3c-1.8,0-3.5,0.7-4.9,1.9c-1,0.9-2.5,2.7-1.8,4.1c1.6,3.1,6.4-2.7,7.3-3.9
					c0.3-0.4-0.4-0.8-0.6-0.4c-0.8,1.1-1.7,2.1-2.7,2.9c-0.7,0.6-4,2.7-3.1-0.2c0.7-2.3,3.6-3.7,5.8-3.7
					C370.2,444.1,370.2,443.3,369.7,443.3L369.7,443.3z"/>
			</g>
		</g>
		<g>
			<g>
				<path class="st1" d="M370.6,444.4c0.8-1.6,2.8-3.3,4.8-2.7c1.5,0.5,0.6,1.7-0.4,2.1c-0.4,0.1-0.8,0.2-1.2,0.3
					c-1.1,0.3-2.2,0.6-3.3,0.8c-0.5,0.1-0.3,0.8,0.2,0.7c1.1-0.3,2.2-0.6,3.3-0.8c0.8-0.2,1.7-0.4,2.3-0.9c0.7-0.6,1-1.8,0.3-2.5
					c-0.9-0.8-2.6-0.6-3.6-0.2c-1.3,0.5-2.4,1.5-3,2.8C369.8,444.4,370.4,444.8,370.6,444.4L370.6,444.4z"/>
			</g>
		</g>
		<g>
			<g>
				<path class="st1" d="M371.9,449.7c1.4-1.5,3.3-2.3,5.4-2.4c0.5,0,0.5-0.8,0-0.8c-2.3,0.1-4.3,1-5.9,2.6
					C371,449.5,371.6,450.1,371.9,449.7L371.9,449.7z"/>
			</g>
		</g>
		<g>
			<g>
				<path class="st1" d="M374.5,452.5c1.2-1.4,2.9-2.1,4.8-2c0.5,0,0.5-0.7,0-0.8c-2-0.2-4,0.7-5.3,2.2
					C373.6,452.4,374.1,452.9,374.5,452.5L374.5,452.5z"/>
			</g>
		</g>
		<g>
			<g>
				<path class="st1" d="M377.2,455.3c1.5-1.7,3.6-2.6,5.8-2.2c0.5,0.1,0.7-0.7,0.2-0.7c-2.5-0.4-4.9,0.5-6.6,2.4
					C376.4,455.1,376.9,455.7,377.2,455.3L377.2,455.3z"/>
			</g>
		</g>
		<g>
			<g>
				<path class="st1" d="M382.2,458.1c2.2-1.8,4.8-2.8,7.6-3.2c0.5-0.1,0.5-0.8,0-0.8c-3,0.3-5.8,1.5-8.1,3.4
					C381.3,457.8,381.9,458.4,382.2,458.1L382.2,458.1z"/>
			</g>
		</g>
		<g>
			<g>
				<path class="st1" d="M341.1,452.2c11.7,6,23.4,12,35.1,18c0.4,0.2,0.8-0.4,0.4-0.6c-11.7-6-23.4-12-35.1-18
					C341,451.4,340.6,452,341.1,452.2L341.1,452.2z"/>
			</g>
		</g>
		<path class="st2" d="M375.1,233.4c-0.2,2.7-0.5,6.7-0.6,11.5c-0.2,7.1-0.6,19,0.8,29.1c1.6,11.1,5.2,19.2,9.4,27.9
			c14.2,29.6,31.1,59.5,37.3,70.5c-2.8,2-7.2,5.2-12.4,9.2c-9.3,7.2-17.4,14.3-38.8,34.2c-5.9,5.5-13.7,12.8-22.7,21.4
			c2.4,0.1,4.9,0.4,7.7,0.9c5.8,1,10.6,2.8,14.3,4.5c4.4-2.1,11.4-5.5,20.1-9.5c9.9-4.6,25.9-11.8,44.6-20.8
			c4.5-2.2,17.1-8.3,26.6-17.7c2.4-2.4,4.9-5.2,7.1-9c3.2-5.6,4.2-10.7,4.9-14.2c0.8-4.6,1.6-12,0-21.2c-1.4-6.4-3.5-15.3-6-25.8
			c-3.4-14.1-7.3-30.1-12.9-48.8c-3.9-13.2-9.5-30.6-17.2-51C416.6,227.5,395.8,230.4,375.1,233.4z"/>
		<g>
			<g>
				<path class="st2" d="M374.9,231.5c-1,12.6-1.6,25.4-0.5,38c1,11.6,5.3,22.1,10,32.6c10.6,23.5,23.4,45.8,36.2,68.1
					c0.2,0.4,0.9,0,0.6-0.4c-12.2-21.2-24.4-42.4-34.6-64.6c-5.4-11.8-10.6-23.5-11.6-36.6c-0.9-12.3-0.4-24.8,0.6-37.1
					C375.7,231,374.9,231,374.9,231.5L374.9,231.5z"/>
			</g>
		</g>
		<g>
			<path class="st3" d="M420.4,372.5c-24.9,20.6-49.1,42.2-72.3,64.7"/>
		</g>
		<g>
			<g>
				<path class="st2" d="M448.3,255.7c9.6,32,18,64.4,25.3,97c0.1,0.5,0.8,0.3,0.7-0.2c-7.2-32.6-15.7-65-25.3-97
					C448.9,255.1,448.2,255.3,448.3,255.7L448.3,255.7z"/>
			</g>
		</g>
		<g>
			<path class="st3" d="M474,357c0.3,8.2-0.1,16.7-3.3,24.3c-5.4,12.8-17.7,21.3-30,28c-21.9,12-45.5,20.6-67.6,32.4"/>
		</g>
		<g>
			<g>
				<path class="st2" d="M349.6,438.5c6.5-0.2,13.1-0.2,18.6,3.7c0.4,0.3,0.8-0.4,0.4-0.6c-5.6-4-12.3-4-19-3.8
					C349.2,437.8,349.2,438.5,349.6,438.5L349.6,438.5z"/>
			</g>
		</g>
	</g>
	<g id="hand_left_1_">
		<path class="st4" d="M519.1,130.8c2.7-5,5.2-9.1,7-12c4-6.3,5.5-7.7,7.1-8.8c3.9-2.7,8.2-3.2,10.9-3.2c-0.1,1.1-0.3,2.2-0.3,3.5
			c-0.1,3,0.1,5.6,0.5,7.8c-0.6,0.8-1.5,2.2-2.7,3.8c-2.7,3.9-3,4.2-3.4,5.1c-1.4,3-0.6,3.9-1.7,6.1c-1.5,2.8-4.2,4-5.5,4.6
			c-5.5,2.5-13.3,1.5-14.4-1.6C516.4,135.5,516.2,133.8,519.1,130.8z"/>
		<path class="st5" d="M493.9,84c0.9,1.1,1.9,2.2,2.8,3.3c0.2,1.5,0.4,3.5,0.6,6c0.7,7.3,1.8,19.4,2.5,34.4c0.3,6.1,0.6,13.5,0.7,22
			c6.9-6.9,13.8-13.8,20.7-20.7c0.3,1.1,0.7,2.5,1.8,4c2.7,3.7,6.9,4.6,8,4.8c-0.9,1.9-2.3,4.8-4,8.3c-6,12.6-6.7,15-10.8,23.4
			c-2.7,5.5-6.5,12.8-12.5,20.2c-1.8,2.2-4.4,5.1-8.6,6.8c-1.4,0.5-5.4,2.1-9.8,0.9c-4.4-1.2-6.9-4.6-9.5-8.2
			c-3.3-4.6-4.4-8.1-8.3-19.2c-3.8-10.7-2.9-7.8-4.5-12.7c-3-8.9-6.3-18.5-9.3-30.9c-1.2-4.7-2.6-11.1-3.9-18.8
			c2-3.4,12.6-21.1,32-23.8C486.2,83,490.3,83.3,493.9,84z"/>
		<g>
			<path class="st3" d="M496.7,87.3c2.1,19.6,3.3,39.3,3.8,59"/>
		</g>
		<g>
			<g>
				<path class="st2" d="M451.3,118.8c5.7,23.1,13.1,45.6,22.3,67.5c0.2,0.4,0.9,0.2,0.7-0.2c-9.2-21.9-16.6-44.5-22.3-67.5
					C451.9,118.2,451.2,118.4,451.3,118.8L451.3,118.8z"/>
			</g>
		</g>
		<g>
			<path class="st3" d="M491.6,158.7c9.2-9.3,18.3-18.6,27.5-27.9"/>
		</g>
		<g>
			<path class="st3" d="M477.7,190.7c1.5,4.2,6,7,10.5,7.1c4.5,0.1,8.8-1.9,12.2-4.9c3.4-2.9,5.9-6.7,8.3-10.5
				c8-12.9,14.6-26.6,20.1-40.8"/>
		</g>
		<g>
			<path class="st3" d="M521.6,130c1.1,3.5,3.9,6.4,7.4,7.5"/>
		</g>
		<g>
			<g>
				<path class="st2" d="M524.8,125.5c1.3,0,2.5-0.4,3.5-1.2c1.5-1.3,1.5-3.2,2.7-4.6c1.6-1.8,4.6-2.1,5.1-4.8
					c0.1-0.5-0.6-0.7-0.7-0.2c-0.5,2.2-3.1,2.8-4.6,4.1c-0.6,0.6-1,1.1-1.3,1.9c-1,2.3-1.9,3.9-4.7,4
					C524.3,124.8,524.3,125.5,524.8,125.5L524.8,125.5z"/>
			</g>
		</g>
		<g>
			<g>
				<path class="st2" d="M526.5,119c1.9-3.2,4.8-5.6,8.3-6.9c0.5-0.2,0.3-0.9-0.2-0.7c-3.7,1.3-6.7,3.8-8.7,7.2
					C525.6,119,526.2,119.4,526.5,119L526.5,119z"/>
			</g>
		</g>
		<g>
			<path class="st3" d="M525.5,118.5c2.3-3.1,4.7-6.2,7.8-8.6c3.1-2.3,7-3.8,10.9-3.2"/>
		</g>
		<g>
			<g>
				<path class="st2" d="M543.6,108.6c-2.4,1.4-4.6,3-6.8,4.6c-0.4,0.3,0,0.9,0.4,0.6c2.2-1.7,4.5-3.2,6.8-4.6
					C544.4,109,544,108.3,543.6,108.6L543.6,108.6z"/>
			</g>
		</g>
		<g>
			<g>
				<path class="st2" d="M543.5,110.1c-1.5,2.6-3.3,4.8-5.6,6.8c-0.4,0.3,0.2,0.8,0.5,0.5c2.3-2,4.2-4.3,5.7-6.9
					C544.4,110,543.7,109.6,543.5,110.1L543.5,110.1z"/>
			</g>
		</g>
		<g>
			<g>
				<path class="st2" d="M544.2,112.4c-1.3,2.9-3.1,5.5-5.4,7.7c-0.3,0.3,0.2,0.9,0.5,0.5c2.3-2.3,4.2-4.9,5.5-7.8
					C545.1,112.3,544.4,111.9,544.2,112.4L544.2,112.4z"/>
			</g>
		</g>
		<g>
			<path class="st3" d="M544.4,115.6c0.6,1.9-0.6,4-2,5.5c-1.4,1.5-3,2.8-3.8,4.7c-0.8,1.8-0.6,3.8-1.3,5.7c-1,2.9-3.8,4.7-6.4,6.3"
				/>
		</g>
	</g>
	<g id="torso_1_">
		<path class="st5" d="M355.8,75.3c0.9,11.9,1.8,23.9,2.6,35.8c-0.2,8.4-0.2,18.3,0.4,29.4c0.1,1.1,0.7,12.9,2.2,25.1
			c3.3,27.6,10.6,53.5,14.3,66c3,1.5,7.5,3.4,13.3,5c12.9,3.5,23.6,2.7,32.3,2c11.2-0.9,19.4-3.1,25.6-4.8c11-3,20-6.5,26.6-9.5
			c1-2.6,2.5-6.9,4.3-12.3c9.4-29.3,11.7-54.3,12.4-67.4c0.5-8.1,0-6.5,0.5-18.2c0.8-18.1,2.4-32.7,3.6-42.2
			c-3.4-2.2-8.2-5.1-14.1-8c-19.9-9.9-37.7-12.8-46.4-13.8c-9.7-1.1-26.8-2.1-47.3,2.5C373.3,67.6,363,71.8,355.8,75.3z"/>
		<g>
			<path class="st3" d="M355.8,75.3C377.5,64.8,401.9,60,426,61.6c24.1,1.5,47.7,9.3,67.9,22.4"/>
		</g>
		<g>
			<g>
				<path class="st1" d="M489.7,94.3c0.6,42.3,1,85.8-16,125.4c-0.2,0.4,0.5,0.8,0.6,0.4c17-39.7,16.7-83.4,16.1-125.8
					C490.5,93.8,489.7,93.8,489.7,94.3L489.7,94.3z"/>
			</g>
		</g>
		<g>
			<path class="st3" d="M358.5,109.5c-1.3,40.1,4,80.5,15.6,118.9"/>
		</g>
		<g>
			<path class="st3" d="M375.3,231.2c16.1,8.7,35.6,9,53.7,6.1c15.2-2.4,30.1-6.9,44.1-13.3"/>
		</g>
	</g>
	<g id="hand_right_1_">
		<path class="st4" d="M349.3,223c0,0.9,0,2.4,0.8,3.9c1.2,2.4,3.5,3.6,5.5,4.6c2.6,1.3,3.2,1,4.7,2.3c1.4,1.2,1.3,1.9,2.6,3.3
			c0.1,0.1,2.1,2.2,5.1,3c0.8,0.2,2.5,0.5,10.3-1.9c1.9-0.6,3.4-1.1,4.4-1.5c-0.2-1.3-0.9-3.6-2.7-6c-1.6-2.1-3.5-3.4-4.6-4
			c3.2,0.9,5.7,0.7,6.2-0.3c0.5-1.1-1.3-3.2-2.7-4.3c-1.6-1.2-3-1.4-6.7-2.3c-1.4-0.4-3.5-0.9-6-1.7c-1.2-0.7-3-1.5-5.3-1.6
			C354.2,216.1,349.7,222.5,349.3,223z"/>
		<path class="st5" d="M355.8,75.3c-1.4,1.1-3.4,2.9-5.6,5.1c-3.1,3.1-11,11.4-18.8,27.8c-7,14.9-9.6,27.4-11.3,35.5
			c-2.1,10.2-4,24.5-3.6,41.9c0.9,1.6,2.2,3.9,3.9,6.6c5.5,8.6,10.9,14.5,17.1,21.4c2.6,2.9,6.2,6.6,10.5,10.9c0.9-1,2-2.1,3.4-3
			c6-4.1,12.7-3.6,15.3-3.3c-2.2-4.6-4.4-9.6-6.4-14.9c-4-10.4-6.8-20.1-8.8-29c1.2-4.7,2.9-10.7,5.3-17.7
			c1.6-4.6,5.2-14.4,11.3-26.4c3.1-6.2,7.3-13.5,12.6-21.6c0.3-1,4.1-13.1-4-23.6C369,75,356.9,75.2,355.8,75.3z"/>
		<g>
			<path class="st3" d="M354.4,76.4c-9.6,8.2-16.9,18.8-22.3,30.2c-5.4,11.4-9,23.6-11.7,35.9c-3.2,14.1-5.3,28.7-3.8,43.1"/>
		</g>
		<g>
			<path class="st3" d="M370.3,126.3c-8.5,15.4-14.8,32-18.7,49.1"/>
		</g>
		<g>
			<path class="st3" d="M316.7,185.6c7.4,14.4,18.9,26.3,30.5,37.5"/>
		</g>
		<g>
			<path class="st3" d="M351.6,175.5c3.4,14.3,8.5,28.2,15.2,41.3"/>
		</g>
		<g>
			<path class="st3" d="M349.1,223.2c4.5-3.8,10.5-5.7,16.4-5.1"/>
		</g>
		<g>
			<path class="st3" d="M349.8,225.9c0.4,2.8,3.2,4.5,5.8,5.6c2.6,1.1,5.5,2.2,6.9,4.6"/>
		</g>
		<g>
			<path class="st3" d="M366.9,218.2c2.4,1.4,5.4,1.5,8.1,2.2c2.7,0.7,5.6,2.3,6.2,5.1"/>
		</g>
		<g>
			<g>
				<path class="st2" d="M373,225.3c4.7,2.3,8.1,6.5,9.3,11.6c0.1,0.5,0.8,0.3,0.7-0.2c-1.3-5.3-4.8-9.6-9.7-12
					C373,224.4,372.6,225,373,225.3L373,225.3z"/>
			</g>
		</g>
		<g>
			<g>
				<path class="st2" d="M364.3,232.8c0.9,0.6,1.8,1.4,2.5,2.3c0.4,0.5,0.7,0.9,0.9,1.5c0.4,1,0.5,3.1-1.3,2.8
					c-0.5-0.1-0.7,0.6-0.2,0.7c1.7,0.3,2.8-1.2,2.5-2.8c-0.4-2.1-2.4-3.9-4-5.1C364.3,231.9,363.9,232.5,364.3,232.8L364.3,232.8z"
					/>
			</g>
		</g>
		<g>
			<g>
				<path class="st2" d="M367.5,231.5c2.4,1.7,5.1,4,4.3,7.3c-0.1,0.5,0.6,0.7,0.7,0.2c0.8-3.6-1.9-6.2-4.7-8.1
					C367.5,230.6,367.2,231.2,367.5,231.5L367.5,231.5z"/>
			</g>
		</g>
		<g>
			<g>
				<path class="st2" d="M371.1,231.4c3.1,0.5,5.3,3.4,4.9,6.5c-0.1,0.5,0.7,0.5,0.8,0c0.4-3.4-2-6.7-5.4-7.2
					C370.8,230.6,370.6,231.4,371.1,231.4L371.1,231.4z"/>
			</g>
		</g>
		<g>
			<g>
				<path class="st2" d="M374,229.5c2.5,1.7,4.1,4.3,4.5,7.3c0.1,0.5,0.8,0.5,0.8,0c-0.4-3.3-2.1-6.1-4.8-7.9
					C373.9,228.6,373.6,229.2,374,229.5L374,229.5z"/>
			</g>
		</g>
	</g>
	<g id="head_1_">
		<path class="st4" d="M402.6,48.3c-0.1,1.8,0.1,3.5,0.3,4.7c0.2,1.3,0.6,3.4,1.5,5.4c2.5,5.5,8,7.7,8.4,7.9c3.4,1.3,6.4,1.1,8,0.8
			c0.4,0.6,0.8,1.2,1.2,1.7c-0.1,0-2.4-0.1-3.4,1.5c-1,1.6,0.1,3.8,1.3,4.8c2.5,2,6.6,0.1,7.5-0.4c2.8-1.3,4.2-3.5,4.7-4.3
			c1.2-1.9,1.7-3.7,1.9-4.9c-1.6,0.2-3.2,0.4-4.7,0.7c-0.6-0.9-1.2-1.9-1.8-2.8c1-1.1,2.7-3,3.8-5.9c0.2-0.7,1-2.7,1-5.5
			c0-1.7-0.1-7.2-3.5-11.1c-5.4-6.3-17.5-6.5-22.6-0.8C404.6,41.8,402.9,44.8,402.6,48.3z"/>
		<path class="st2" d="M432.5,48.1c-1.1-1.3-4.3-4.9-9.8-6.4c-1.7-0.4-6.7-1.6-12,1c-4.9,2.4-7.1,6.6-7.7,8c-0.8-0.2-2-0.5-3.3-1.1
			c-5.2-2.5-7.4-7.3-7.7-8.1c-0.7-1.6-2.6-6.7-0.1-12.3c0.5-1,2.6-5.5,7.5-7.6c4.9-2.1,9.5-0.4,13.1,0.9c8.9,3.2,13.6,10.1,14.9,12
			C430.7,39.7,432,44.7,432.5,48.1z"/>
		<g>
			<path class="st3" d="M403,49.3c-0.8,5.8,1.8,12,6.6,15.3c4.8,3.3,11.7,3.4,16.4-0.1c4.3-3.2,6.4-8.7,6.1-14.1"/>
		</g>
		<g>
			<g>
				<path class="st2" d="M420.4,67.2c0.4,0.6,0.8,1.2,1.2,1.7c0.3,0.4,0.9,0,0.6-0.4c-0.4-0.6-0.8-1.2-1.2-1.7
					C420.8,66.4,420.2,66.8,420.4,67.2L420.4,67.2z"/>
			</g>
		</g>
		<g>
			<g>
				<path class="st2" d="M402.9,50.9c-7-3.5-13.9-10.3-11.7-18.9c2-8,9.5-12.2,17.3-10.4c12.5,3,21.4,13.5,23.5,26
					c0.1,0.5,0.8,0.3,0.7-0.2c-1.4-8-5.3-15.4-11.8-20.5c-5.1-4.1-13.3-8.1-20-6.3c-5.8,1.6-10.4,7.6-10.9,13.5
					c-0.6,8.1,5.8,14,12.4,17.3C402.9,51.8,403.3,51.2,402.9,50.9L402.9,50.9z"/>
			</g>
		</g>
		<g>
			<g>
				<path class="st2" d="M403.4,49.4c6.9-9.7,20-10.4,28-1.7c0.3,0.4,0.9-0.2,0.5-0.5c-8.3-9.1-22-8.2-29.2,1.8
					C402.5,49.4,403.1,49.8,403.4,49.4L403.4,49.4z"/>
			</g>
		</g>
		<g>
			<path class="st3" d="M418.6,70.3c-0.8,1.6-0.1,3.7,1.3,4.8c1.4,1.1,3.4,1.2,5.1,0.7c1.7-0.5,3.2-1.6,4.6-2.7
				c2.3-1.9,4.4-4.5,4.4-7.5"/>
		</g>
		<g>
			<g>
				<path class="st2" d="M413.9,48c-1,3.5-2.1,10.1,2.6,11.4c0.5,0.1,0.7-0.6,0.2-0.7c-4.1-1.2-3-7.5-2.1-10.5
					C414.7,47.8,414,47.6,413.9,48L413.9,48z"/>
			</g>
		</g>
		<path class="st2" d="M421.9,48.9c0,0.9-0.4,1.6-0.9,1.6c-0.5,0-0.9-0.7-0.9-1.6s0.4-1.6,0.9-1.6C421.5,47.3,421.9,48,421.9,48.9z"
			/>
	</g>
	<g id="tab_2_">
		<path class="st6" d="M285.1,156.4c-0.4,0.6,0,95.5,0,95.5L405.2,270c0.9-35.6,1.9-71.2,2.8-106.8
			C367.1,161,326.1,158.7,285.1,156.4z"/>
		<line class="st7" x1="302.5" y1="174.5" x2="384.5" y2="181.8"/>
		<line class="st7" x1="303.1" y1="188.6" x2="387.1" y2="196.1"/>
		<line class="st7" x1="302.1" y1="211" x2="396.4" y2="219.9"/>
		<circle class="st7" cx="295.9" cy="232.9" r="3.8"/>
		<circle class="st7" cx="294.4" cy="173.3" r="3.7"/>
		<g>
			<g>
				<path class="st1" d="M302.5,210.4c0.1-0.9,0.3-1.9,0.4-2.8c0.1-0.5-0.7-0.5-0.8,0c-0.1,0.9-0.3,1.9-0.4,2.8
					C301.7,210.9,302.4,210.9,302.5,210.4L302.5,210.4z"/>
			</g>
		</g>
		<g>
			<g>
				<path class="st1" d="M302.7,207.7c30.7,2.9,61.3,5.8,92,8.7c0.5,0,0.5-0.7,0-0.8c-30.7-2.9-61.3-5.8-92-8.7
					C302.3,206.9,302.3,207.7,302.7,207.7L302.7,207.7z"/>
			</g>
		</g>
		<g>
			<g>
				<path class="st1" d="M395.5,216.1c0,0.9,0,1.9,0,2.8c0,0.5,0.8,0.5,0.8,0c0-0.9,0-1.9,0-2.8
					C396.2,215.6,395.5,215.6,395.5,216.1L395.5,216.1z"/>
			</g>
		</g>
		<g>
			<g>
				<path class="st1" d="M303.5,188.4c0.2-1,0.3-1.9,0.2-2.9c0-0.5-0.8-0.5-0.8,0c0.1,0.9,0,1.8-0.2,2.7
					C302.7,188.7,303.4,188.9,303.5,188.4L303.5,188.4z"/>
			</g>
		</g>
		<g>
			<g>
				<path class="st1" d="M303.8,185.8c27.5,1.7,55,3.7,82.5,5.9c0.5,0,0.5-0.7,0-0.8c-27.5-2.2-55-4.2-82.5-5.9
					C303.3,185,303.3,185.7,303.8,185.8L303.8,185.8z"/>
			</g>
		</g>
		<g>
			<g>
				<path class="st1" d="M386.8,192.2c0,1,0,2,0,3c0,0.5,0.8,0.5,0.8,0c0-1,0-2,0-3C387.5,191.7,386.8,191.7,386.8,192.2
					L386.8,192.2z"/>
			</g>
		</g>
		<g>
			<g>
				<path class="st1" d="M303.4,174.1c0.2-1.1,0.3-2.2,0.2-3.4c0-0.5-0.8-0.5-0.8,0c0.1,1.1,0.1,2.1-0.1,3.2
					C302.6,174.4,303.3,174.6,303.4,174.1L303.4,174.1z"/>
			</g>
		</g>
		<g>
			<g>
				<path class="st1" d="M304,171c26.4,2,53,1.6,79.2,6c0.5,0.1,0.7-0.6,0.2-0.7c-26.2-4.5-52.9-4.1-79.4-6.1
					C303.5,170.2,303.5,170.9,304,171L304,171z"/>
			</g>
		</g>
		<g>
			<g>
				<path class="st1" d="M384,177.5c0,0.8,0,1.6,0,2.4c0,0.5,0.8,0.5,0.8,0c0-0.8,0-1.6,0-2.4C384.7,177,384,177,384,177.5
					L384,177.5z"/>
			</g>
		</g>
		<g>
			<g>
				<path class="st1" d="M303.5,194.2c-1.3,1.8-2.6,3.5-3.9,5.3c-0.2,0.2,0.1,0.6,0.3,0.6c1.8,0,3.4,0.4,5,1.3
					c0.4,0.2,0.8-0.4,0.4-0.6c-1.7-1-3.5-1.4-5.4-1.4c0.1,0.2,0.2,0.4,0.3,0.6c1.3-1.8,2.6-3.5,3.9-5.3
					C304.5,194.2,303.8,193.8,303.5,194.2L303.5,194.2z"/>
			</g>
		</g>
		<g>
			<g>
				<path class="st1" d="M309.4,201.3c1.4-1.9,2.9-3.8,4.3-5.7c0.3-0.4-0.4-0.8-0.6-0.4c-1.4,1.9-2.9,3.8-4.3,5.7
					C308.4,201.3,309.1,201.7,309.4,201.3L309.4,201.3z"/>
			</g>
		</g>
		<g>
			<g>
				<path class="st1" d="M316.6,199.3c15.4,0.5,30.9,2.8,46.2,4.3c0.5,0,0.5-0.7,0-0.8c-15.3-1.5-30.8-3.9-46.2-4.3
					C316.1,198.6,316.1,199.3,316.6,199.3L316.6,199.3z"/>
			</g>
		</g>
		<g>
			<g>
				<path class="st1" d="M362.8,199.1c1,0.5,1.9,1,2.9,1.4c0.9,0.4,2.1,0.8,2.9,1.4c0.2,0.1,0.3,0.2,0.5,0.3c0,0.5-0.2,0.9-0.6,1.1
					c-0.3,0.3-0.8,0.6-1.1,0.9c-0.9,0.7-1.8,1.4-2.8,2.1c-0.4,0.3,0,0.9,0.4,0.6c1.3-1,2.6-2,3.9-3c0.5-0.4,1.5-0.9,1.3-1.7
					c-0.2-0.8-1.6-1.2-2.3-1.5c-1.6-0.8-3.1-1.6-4.7-2.3C362.8,198.3,362.4,198.9,362.8,199.1L362.8,199.1z"/>
			</g>
		</g>
		<g>
			<g>
				<path class="st1" d="M303.6,216.3c-1.6,1.7-3.1,3.5-4.7,5.2c-0.2,0.2-0.1,0.6,0.2,0.6c1.9,0.4,3.7,0.7,5.6,1.1
					c0.5,0.1,0.7-0.6,0.2-0.7c-1.9-0.4-3.7-0.7-5.6-1.1c0.1,0.2,0.1,0.4,0.2,0.6c1.6-1.7,3.1-3.5,4.7-5.2
					C304.4,216.5,303.9,216,303.6,216.3L303.6,216.3z"/>
			</g>
		</g>
		<g>
			<g>
				<path class="st1" d="M308.1,224.2c2.5-2.3,5-4.6,7.6-6.9c0.4-0.3-0.2-0.9-0.5-0.5c-2.5,2.3-5,4.6-7.6,6.9
					C307.2,224,307.7,224.5,308.1,224.2L308.1,224.2z"/>
			</g>
		</g>
		<g>
			<g>
				<path class="st1" d="M315.9,221c6.5,0.3,13,0.6,19.5,0.9c0.5,0,0.5-0.7,0-0.8c-6.5-0.3-13-0.6-19.5-0.9
					C315.4,220.2,315.4,221,315.9,221L315.9,221z"/>
			</g>
		</g>
		<g>
			<g>
				<path class="st1" d="M333.8,217.7c2.7,1.9,5.7,3.3,9,4.2c0-0.2-0.1-0.5-0.1-0.7c-2.4,1.3-4.4,3-5.9,5.2
					c-0.3,0.4,0.4,0.8,0.6,0.4c1.5-2.1,3.4-3.8,5.7-5c0.3-0.2,0.2-0.6-0.1-0.7c-3.2-0.8-6.1-2.2-8.8-4.1
					C333.8,216.8,333.4,217.4,333.8,217.7L333.8,217.7z"/>
			</g>
		</g>
	</g>
	<g id="tab_1_">
		<path class="st8" d="M477.7,103c1.9,1.7,0,87.7,0,87.7l92.4-38.2V76.4L477.7,103z"/>
		<circle class="st9" cx="484.5" cy="112.2" r="3.3"/>
		<circle class="st9" cx="486.3" cy="168.9" r="4.1"/>
		<g>
			<g>
				<path class="st2" d="M484.5,113.5c1.9,0,1.9-3,0-3C482.6,110.5,482.6,113.5,484.5,113.5L484.5,113.5z"/>
			</g>
		</g>
		<g>
			<g>
				<path class="st2" d="M484.9,170.3c0.1,0.1,0.1,0.1,0.2,0.2c0.6,0.6,1.5,0.6,2.1,0c0.6-0.6,0.6-1.5,0-2.1
					c-0.1-0.1-0.1-0.1-0.2-0.2c-0.6-0.6-1.5-0.6-2.1,0C484.3,168.8,484.3,169.8,484.9,170.3L484.9,170.3z"/>
			</g>
		</g>
		<g>
			<g>
				<path class="st2" d="M497.3,105.1c-1.2,1.5-2.4,3.2-3.4,4.8c-0.1,0.2,0,0.6,0.3,0.6c1.5,0,2.9,0,4.4-0.1c0.5,0,0.5-0.8,0-0.8
					c-1.5,0-2.9,0-4.4,0.1c0.1,0.2,0.2,0.4,0.3,0.6c1-1.6,2.1-3.2,3.3-4.7C498.1,105.3,497.6,104.8,497.3,105.1L497.3,105.1z"/>
			</g>
		</g>
		<g>
			<g>
				<path class="st2" d="M503.7,104c-1.4,1.9-2.4,3.9-3.1,6.1c-0.2,0.5,0.6,0.7,0.7,0.2c0.7-2.1,1.7-4.1,3.1-5.9
					C504.6,104,503.9,103.6,503.7,104L503.7,104z"/>
			</g>
		</g>
		<g>
			<g>
				<path class="st2" d="M506.9,103.2c1.1,0.6,2.3,1.1,3.5,1.5c0.3,0.1,0.6,0.1,0.6,0.5c0,0.1-0.7,0.8-0.9,0.9
					c-0.6,0.6-1.1,1.2-1.7,1.7c-0.3,0.3,0.2,0.9,0.5,0.5c0.8-0.8,1.6-1.6,2.4-2.5c0.3-0.3,0.7-0.7,0.5-1.2c-0.2-0.5-1-0.5-1.4-0.7
					c-1.1-0.3-2.1-0.8-3.2-1.3C506.8,102.3,506.4,103,506.9,103.2L506.9,103.2z"/>
			</g>
		</g>
		<g>
			<g>
				<path class="st2" d="M496.1,117.1c0.1,0.9,0.2,1.8,0.3,2.6c0.1,0.5,0.8,0.5,0.8,0c-0.1-0.9-0.2-1.8-0.3-2.6
					C496.8,116.6,496.1,116.6,496.1,117.1L496.1,117.1z"/>
			</g>
		</g>
		<g>
			<g>
				<path class="st2" d="M497.3,117.3c17-5,34.1-10.1,51.1-15.1c0.5-0.1,0.3-0.9-0.2-0.7c-17,5-34.1,10.1-51.1,15.1
					C496.6,116.7,496.8,117.5,497.3,117.3L497.3,117.3z"/>
			</g>
		</g>
		<g>
			<g>
				<path class="st2" d="M500,120.2c16.3-4.9,32.7-9.7,49-14.6c0.5-0.1,0.3-0.9-0.2-0.7c-16.3,4.9-32.7,9.7-49,14.6
					C499.4,119.6,499.6,120.3,500,120.2L500,120.2z"/>
			</g>
		</g>
		<g>
			<g>
				<path class="st2" d="M548.3,102.1c0.1,0.7,0.2,1.4,0.4,2.1c0.1,0.5,0.8,0.3,0.7-0.2c-0.1-0.7-0.2-1.4-0.4-2.1
					C548.9,101.5,548.2,101.7,548.3,102.1L548.3,102.1z"/>
			</g>
		</g>
		<g>
			<g>
				<path class="st2" d="M507.7,122.5c0.2,0.8,0.3,1.6,0.5,2.5c0.1,0.5,0.8,0.3,0.7-0.2c-0.2-0.8-0.3-1.6-0.5-2.5
					C508.3,121.8,507.6,122,507.7,122.5L507.7,122.5z"/>
			</g>
		</g>
		<g>
			<g>
				<path class="st2" d="M508.6,122c15.8-4.4,31.6-9.1,47.3-13.9c0.5-0.1,0.3-0.9-0.2-0.7c-15.7,4.9-31.5,9.5-47.3,13.9
					C508,121.4,508.2,122.1,508.6,122L508.6,122z"/>
			</g>
		</g>
		<g>
			<g>
				<path class="st2" d="M510.2,125.6c16-5.1,32.1-10.2,48.1-15.3c0.5-0.1,0.3-0.9-0.2-0.7c-16,5.1-32.1,10.2-48.1,15.3
					C509.6,125,509.8,125.7,510.2,125.6L510.2,125.6z"/>
			</g>
		</g>
		<g>
			<g>
				<path class="st2" d="M557,107.1c0.1,0.6,0.1,1.2,0.2,1.8c0,0.5,0.8,0.5,0.8,0c-0.1-0.6-0.1-1.2-0.2-1.8
					C557.7,106.7,556.9,106.7,557,107.1L557,107.1z"/>
			</g>
		</g>
		<g>
			<g>
				<path class="st2" d="M497.2,135c-1.1,1.5-2.2,3-3.3,4.5c-0.1,0.2,0,0.5,0.2,0.6c1.5,0.2,3,0.4,4.5,0.5c0.5,0,0.5-0.7,0-0.8
					c-1.4-0.1-2.9-0.2-4.3-0.4c0.1,0.2,0.1,0.4,0.2,0.6c1.1-1.5,2.2-3,3.3-4.5C498.1,135,497.5,134.6,497.2,135L497.2,135z"/>
			</g>
		</g>
		<g>
			<g>
				<path class="st2" d="M502.3,134.3c-1.1,1.8-2.1,3.7-2.8,5.6c-0.2,0.5,0.6,0.6,0.7,0.2c0.7-1.9,1.6-3.7,2.7-5.4
					C503.2,134.3,502.6,133.9,502.3,134.3L502.3,134.3z"/>
			</g>
		</g>
		<g>
			<g>
				<path class="st2" d="M504.6,136.6c10.1-2.5,20.2-5.2,30.3-8c0.5-0.1,0.3-0.9-0.2-0.7c-10,2.9-20.1,5.5-30.3,8
					C503.9,136,504.1,136.8,504.6,136.6L504.6,136.6z"/>
			</g>
		</g>
		<g>
			<g>
				<path class="st2" d="M534.3,126.7c1.4,0.9,2.9,1.6,4.4,2.1c0.5,0.2,0.7-0.6,0.2-0.7c-1.5-0.5-2.9-1.2-4.2-2
					C534.2,125.8,533.9,126.4,534.3,126.7L534.3,126.7z"/>
			</g>
		</g>
		<g>
			<g>
				<path class="st2" d="M538.2,124.4c1.9,0.5,3.8,0.9,5.8,1.2c-0.1-0.2-0.2-0.4-0.3-0.6c-0.9,1-1.6,2.2-2,3.5
					c-0.2,0.5,0.6,0.7,0.7,0.2c0.4-1.2,1-2.2,1.8-3.2c0.2-0.3,0.1-0.6-0.3-0.6c-1.9-0.2-3.7-0.6-5.6-1.1
					C537.9,123.6,537.7,124.3,538.2,124.4L538.2,124.4z"/>
			</g>
		</g>
		<g>
			<g>
				<path class="st2" d="M494.5,148.2c-0.1,0.7-0.2,1.4-0.4,2.1c-0.1,0.5,0.6,0.7,0.7,0.2c0.1-0.7,0.2-1.4,0.4-2.1
					C495.3,147.9,494.6,147.7,494.5,148.2L494.5,148.2z"/>
			</g>
		</g>
		<g>
			<g>
				<path class="st2" d="M496.4,147.8c16.4-4.5,32.7-9.4,48.9-14.7c0.5-0.1,0.3-0.9-0.2-0.7c-16.2,5.3-32.5,10.2-48.9,14.7
					C495.7,147.2,495.9,147.9,496.4,147.8L496.4,147.8z"/>
			</g>
		</g>
		<g>
			<g>
				<path class="st2" d="M498.7,151.1c16-5.5,32.2-10.6,48.4-15.4c0.5-0.1,0.3-0.9-0.2-0.7c-16.3,4.8-32.4,9.9-48.4,15.4
					C498.1,150.5,498.2,151.2,498.7,151.1L498.7,151.1z"/>
			</g>
		</g>
		<g>
			<g>
				<path class="st2" d="M546.2,133.2c0.1,0.5,0.1,1.1,0.2,1.6c0.1,0.5,0.8,0.5,0.8,0c-0.1-0.5-0.1-1.1-0.2-1.6
					C546.9,132.7,546.1,132.7,546.2,133.2L546.2,133.2z"/>
			</g>
		</g>
	</g>
</g>
<g id="girl">
	<g id="tab">
		<polygon class="st10" points="51.2,0.5 43.1,171.2 239.5,183.7 255,2.6 		"/>
		<circle class="st8" cx="69.3" cy="28" r="7.3"/>
		<circle class="st8" cx="68.3" cy="88" r="6.3"/>
		<line class="st11" x1="91.9" y1="25.5" x2="229.9" y2="28"/>
		<line class="st11" x1="91.9" y1="41.1" x2="229.9" y2="43.5"/>
		<line class="st11" x1="91.6" y1="57" x2="229.6" y2="59.4"/>
		<line class="st11" x1="91.3" y1="74.1" x2="229.3" y2="76.5"/>
		<line class="st11" x1="90.7" y1="93.1" x2="228.7" y2="95.5"/>
	</g>
	<g id="leg_left">
		<path class="st8" d="M161.8,477c-0.3,5-0.5,10-0.8,15.1c44.1,6.3,66.8,7,68.1,2.1c1.1-4.1-12.3-11.9-40.2-23.6
			C179.9,472.7,170.9,474.9,161.8,477z"/>
		<g>
			<g>
				<path class="st1" d="M191.9,472.1c-2.4,0.7-4.2,2.7-4.5,5.2c-0.2,1.5,0.4,3.8,2.4,2.8c2.1-1.1,2.7-4,3.3-6
					c0.5-1.5,1-3.3,2.4-4.3c1.1-0.7,1.4-0.8,2.1,0.4c0.6,1.1,0.6,1.3-0.2,2.3c-0.9,1.1-2.2,1.6-3.6,1.5c-0.5,0-0.5,0.7,0,0.8
					c2.3,0.2,4.9-1.4,5.2-3.9c0.2-2-1.6-2.8-3.3-2c-2.3,1.1-2.9,3.9-3.6,6.1c-0.2,0.8-0.5,1.6-0.9,2.3c-0.2,0.4-0.5,1.1-0.9,1.4
					c-0.4,0.3-1.6,0.7-2.1,0.2c-0.7-0.6,0.3-2.9,0.6-3.5c0.7-1.3,1.9-2.1,3.3-2.6C192.5,472.7,192.3,472,191.9,472.1L191.9,472.1z"
					/>
			</g>
		</g>
		<g>
			<g>
				<path class="st1" d="M195.6,480.1c1-2,2.8-3.3,4.9-3.7c0.5-0.1,0.3-0.8-0.2-0.7c-2.3,0.5-4.3,2-5.4,4.1
					C194.7,480.2,195.4,480.6,195.6,480.1L195.6,480.1z"/>
			</g>
		</g>
		<g>
			<g>
				<path class="st1" d="M200,481.8c0.8-1.9,2.6-3.2,4.8-3.2c0.5,0,0.5-0.8,0-0.8c-2.4,0-4.5,1.4-5.4,3.6
					C199.2,481.8,199.8,482.2,200,481.8L200,481.8z"/>
			</g>
		</g>
		<g>
			<g>
				<path class="st1" d="M204,482.9c1-1.7,2.8-2.7,4.8-2.6c0.5,0,0.5-0.7,0-0.8c-2.2,0-4.3,1.1-5.5,3
					C203.1,483,203.7,483.3,204,482.9L204,482.9z"/>
			</g>
		</g>
		<g>
			<g>
				<path class="st1" d="M209.4,485c1.1-1.4,2.7-2.2,4.5-2.2c0.5,0,0.5-0.8,0-0.8c-2,0.1-3.8,0.9-5,2.5
					C208.6,484.8,209.1,485.3,209.4,485L209.4,485z"/>
			</g>
		</g>
		<g>
			<g>
				<path class="st1" d="M162.6,489.1c14.9,1.5,29.7,3.3,44.4,5.5c0.5,0.1,0.7-0.7,0.2-0.7c-14.8-2.2-29.7-4.1-44.6-5.6
					C162.1,488.3,162.1,489,162.6,489.1L162.6,489.1z"/>
			</g>
		</g>
		<path class="st5" d="M81.3,365c0.3,1.4,2.2,3,6.1,6.1c2.8,2.3,8.8,6.8,16.9,10c15.9,6.3,34.4,5.7,40.3,5.4
			c7.2-0.4,18.5-2.7,40.8-7.5c4.2-0.9,24.3-5.1,28.9-6.1c-1.4,2.1-3.4,5.2-5.7,8.9c-7.4,12-10.8,19.4-20.8,40.2
			c-12.2,25.2-13.5,27.4-18.6,38.9c-3.5,8-6.3,14.7-8.3,19.5c2.4-1.5,5.1-3.1,8.2-4.5c7-3.2,13.4-4.6,18.5-5.3c2-2.5,5-6.2,8.5-10.7
			c12.5-15.9,24.6-31.3,37.9-50.6c0,0,10.1-14.7,21.9-36.9c0.9-1.6,4.4-8.5,6.3-18.1c1.3-6.7,2.6-13.6-0.9-20.1
			c-2.1-3.8-4.9-5.9-6.9-7.4c-6.1-4.6-12.6-5.9-16.3-6.4c-15.3-2.3-30.5,0.3-48.3,3c-6.1,0.9-15.5,2.3-27.1,3.8
			c-5,0.3-12.1,0.9-20.5,2.6C110.5,336.5,79.1,355,81.3,365z"/>
		<g>
			<path class="st3" d="M81.3,365c14.9,17.7,40.2,23.2,63.2,21.5s45.2-9.4,68-13.5"/>
		</g>
		<g>
			<path class="st3" d="M213.1,373.4c-18.5,33.8-35.6,68.4-51.3,103.6"/>
		</g>
		<g>
			<path class="st3" d="M162.6,327.3c13.8-1.9,27.5-3.8,41.3-5.8c16.3-2.3,33.9-4.3,48.1,4c3.7,2.2,7.1,5,9.1,8.8
				c2.6,5,2.5,11.1,1.6,16.7c-2.1,12.8-8,24.6-14.5,35.8c-16.5,28.4-37.1,54.3-57.6,80"/>
		</g>
		<g>
			<path class="st3" d="M165.7,477.8c7-4.2,15.1-6.7,23.3-7.2"/>
		</g>
	</g>
	<g id="leg_right">
		<path class="st8" d="M212,435.6c-1.6,5.1-3.3,10.2-4.9,15.3c35.4,22.6,54.6,32.1,57.7,28.4c2.7-3.3-7.5-17.2-30.6-41.5
			c-1.7-1.2-4.4-2.8-8.1-3.7C219.5,432.6,214,434.7,212,435.6z"/>
		<g>
			<g>
				<path class="st1" d="M234.1,439c-1.8,0.7-3.4,1.8-4.6,3.3c-0.7,0.9-2.1,2.8-1.3,3.9c0.9,1.3,2.9-0.1,3.7-0.8
					c1.4-1.2,2.4-2.9,2.7-4.8c0.1-0.5-0.6-0.7-0.7-0.2c-0.2,1.2-0.7,2.4-1.5,3.4c-0.5,0.6-3.7,3.5-3.6,1.2c0-1,1.4-2.5,2-3.1
					c1-1,2.2-1.8,3.5-2.3C234.8,439.5,234.6,438.8,234.1,439L234.1,439z"/>
			</g>
		</g>
		<g>
			<g>
				<path class="st1" d="M234.9,440.1c0.3-1.5,1.5-3.5,3.2-3.7c0.8-0.1,1,0.7,0.6,1.3c-0.2,0.4-0.5,0.7-0.8,1
					c-0.6,0.6-1.4,1-2.2,1.3c-0.4,0.2-0.1,0.9,0.4,0.6c1.2-0.6,2.5-1.3,3.2-2.5c0.5-0.8,0.7-2-0.3-2.5c-2.3-1-4.4,2.3-4.8,4.1
					C234,440.3,234.8,440.6,234.9,440.1L234.9,440.1z"/>
			</g>
		</g>
		<g>
			<g>
				<path class="st1" d="M235.5,444.4c0.8-1.2,1.8-2.1,3.1-2.7c0.4-0.2,0.1-0.9-0.4-0.6c-1.4,0.7-2.6,1.7-3.4,3
					C234.6,444.4,235.3,444.8,235.5,444.4L235.5,444.4z"/>
			</g>
		</g>
		<g>
			<g>
				<path class="st1" d="M237.5,447.4c1-1.6,2.4-2.7,4.2-3.3c0.5-0.1,0.3-0.9-0.2-0.7c-1.9,0.6-3.6,1.9-4.6,3.6
					C236.6,447.4,237.3,447.8,237.5,447.4L237.5,447.4z"/>
			</g>
		</g>
		<g>
			<g>
				<path class="st1" d="M240.1,450c1-1.4,2.2-2.5,3.8-3.2c0.4-0.2,0.1-0.9-0.4-0.6c-1.6,0.8-3,2-4,3.5
					C239.2,450,239.8,450.4,240.1,450L240.1,450z"/>
			</g>
		</g>
		<g>
			<g>
				<path class="st1" d="M241.9,453.1c1-1.6,2.4-2.9,4.1-3.6c0.4-0.2,0.1-0.8-0.4-0.6c-1.9,0.8-3.4,2.2-4.4,3.9
					C241,453.1,241.7,453.5,241.9,453.1L241.9,453.1z"/>
			</g>
		</g>
		<g>
			<g>
				<path class="st1" d="M245,455.6c1.3-1.1,2.6-2.2,3.9-3.2c0.4-0.3-0.2-0.8-0.5-0.5c-1.3,1.1-2.6,2.2-3.9,3.2
					C244.1,455.4,244.6,455.9,245,455.6L245,455.6z"/>
			</g>
		</g>
		<g>
			<g>
				<path class="st1" d="M208.4,449.5c9.3,5.1,18.2,10.7,26.9,16.8c0.4,0.3,0.8-0.4,0.4-0.6c-8.7-6-17.7-11.6-26.9-16.8
					C208.4,448.6,208,449.2,208.4,449.5L208.4,449.5z"/>
			</g>
		</g>
		<path class="st5" d="M162.6,298.1c-3,1.4-7.2,3.8-11.6,7.4c-3.6,2.9-16.4,13.7-20.1,32.5c-2.2,11-0.3,20.3,1.3,25.9
			c2.7,1.3,6.9,3,12.3,4.2c6.4,1.4,12,1.4,25.7,0.3c10.7-0.9,16.1-1.4,23.8-2.5c10.7-1.6,25.3-3.9,43.1-10.3c2.8-1,5.1-1.9,6.7-2.6
			c-0.5,1.2-1.3,3.1-2.3,5.4c-5.4,12.8-9.5,23.2-14.3,35.4c-6.5,16.6-12.3,31.9-17.1,44.7c1.9-1.5,4.8-3.1,8.5-4
			c2.3-0.5,5.3-1.2,8.7,0.1c2.9,1.1,4.8,3,5.6,4.1c1.3-1.7,3.4-4.4,5.7-7.8c4.5-6.5,7.4-11.6,8.6-13.5c3.8-6.5,9.7-15.6,21.4-33.8
			c4.5-6.9,8.8-13.9,13.2-20.9c3.3-5.2,6.4-9.9,9-17.1c2.5-6.8,3-11.3,3.1-13.4c0.2-3.8,0.5-8.5-1.9-13.6c-1.1-2.3-2.9-5.1-7-8.3
			c-9.1-7.2-19.7-8.9-23.3-9.4c-29.4-4.3-44.1-6.5-51.2-6.6C198.2,294.1,181.8,294.8,162.6,298.1z"/>
		<g>
			<path class="st3" d="M162.6,298.1c30.8-5.7,62.7-5.2,93.3,1.3c10.2,2.2,20.4,5.1,29.2,10.8"/>
		</g>
		<g>
			<g>
				<path class="st12" d="M132,364.2c7.2,4,15.2,4.9,23.4,5c10.1,0,20.3-0.7,30.4-1.9c19.8-2.4,39.2-7,58-13.7
					c0.5-0.2,0.3-0.9-0.2-0.7c-18.1,6.4-36.8,11-55.9,13.5c-9.2,1.2-18.5,1.9-27.8,2.1c-9.4,0.2-19-0.1-27.4-4.8
					C132,363.3,131.6,364,132,364.2L132,364.2z"/>
			</g>
		</g>
		<g>
			<g>
				<path class="st12" d="M243.4,352.7c-11.7,27.2-22.3,54.8-31.8,82.8c-0.2,0.5,0.6,0.7,0.7,0.2c9.5-27.9,20.1-55.5,31.7-82.6
					C244.3,352.7,243.6,352.3,243.4,352.7L243.4,352.7z"/>
			</g>
		</g>
		<g>
			<path class="st3" d="M292.1,318.5c3.1,7.9,2.3,17-0.5,25s-7.4,15.3-11.9,22.5c-15.2,23.9-30.3,47.8-45.5,71.7"/>
		</g>
		<g>
			<path class="st3" d="M213.4,437.7c3.1-1.9,6.5-3.5,10.2-3.7s7.5,1.4,9.4,4.5"/>
		</g>
	</g>
	<g id="hand_left">
		<path class="st4" d="M74.4,288.2c1.1-1.5,0.7-0.6,4.2-4.6c6.8-7.6,10.1-11.5,12.3-15c1.2-1.9,2.5-4.2,4-4c1,0.1,1.7,1.2,2.4,2.4
			c1.9,3.2,1.8,6.5,1.8,6.9c-0.1,2.2-0.7,2.9-2.4,6.9c-2.6,6.4-1.9,6.7-3.9,10.5c-1.5,2.8-2.9,4.7-4.5,6.8c-2.8,3.7-4.9,5.6-5.7,6.3
			c-2.5,2.2-3.9,3.4-6.1,3.6c-0.5,0-3.1,0.3-4.8-1.2C68.1,303.8,70.1,294.4,74.4,288.2z"/>
		<path class="st13" d="M9.5,171.4c-2.6,9.8-4.8,20.4-6.4,31.8c-1.8,13-2.1,22.9-2.4,31.2c-0.5,16.6,0.7,12.3,0.5,32.4
			c0,3.1-0.2,9.7,2,17.9c1.9,7.2,4,10.1,4.9,11.1c3.6,4.5,8,6.3,11.6,7.8c4.4,1.8,8.7,2.5,17,3.7c4.3,0.6,7.9,1,10.3,1.2
			c5.4,0.4,11.3,0.6,17.7,0.4c4.2-0.1,8.2-0.4,11.9-0.9c0.4-2,0.8-4.6,0.7-7.6c-0.2-4.7-1.5-8.5-2.6-10.8
			c-5.3-4.5-9.8-7.9-12.8-10.2c-2.8-2.1-6.2-4.6-12.9-9.8c-5.1-3.9-7.2-6.3-8.7-9.2c-1.7-3.3-1.9-6.2-1.9-16.8c0-6.5,0-9.7,0.2-16.2
			c0.4-11.6,0.1-10.4,0.4-23.8c0.5-20.7,1.2-22.1-0.6-24.9C36.7,175.9,30.9,169.6,9.5,171.4z"/>
		<g>
			<path class="st3" d="M9.7,173.1c-9.6,31.2-10,64.5-8.3,97.2c0.6,11.1,2.1,23.6,11.2,30c3.5,2.5,7.8,3.7,12,4.7
				c17,4,34.7,5,52,3.1"/>
		</g>
		<g>
			<g>
				<path class="st2" d="M38.7,200.8c-0.1,9.7-0.3,19.4-0.4,29.2c-0.1,5.2-0.2,10.4-0.2,15.6c-0.1,3.5-0.4,7.2,0.3,10.6
					c1.4,7,7.3,11.3,12.6,15.4c7.8,6.1,15.7,12.2,23.5,18.4c0.4,0.3,0.9-0.2,0.5-0.5c-7.3-5.7-14.6-11.4-21.9-17.1
					c-6.7-5.2-13.8-10.2-14.3-19.5c-0.8-17.2,0.5-34.7,0.7-52C39.5,200.3,38.7,200.3,38.7,200.8L38.7,200.8z"/>
			</g>
		</g>
		<g>
			<g>
				<path class="st2" d="M74.7,292.2c1.8,3.8,2.4,7.9,2,12c-0.1,0.5,0.7,0.5,0.8,0c0.5-4.3-0.2-8.5-2.1-12.4
					C75.2,291.4,74.5,291.7,74.7,292.2L74.7,292.2z"/>
			</g>
		</g>
		<g>
			<g>
				<path class="st2" d="M81.7,301.5c2.5-4.1,5.3-7.9,8.6-11.3c1.8-1.9,5.7-4.2,6.2-7.1c0.4-3-3.2-4.7-4.2-1.6
					c-0.2,0.5,0.6,0.7,0.7,0.2c0.4,1.3,0.8,2.5,1.2,3.8c-0.3,0.3-0.6,0.6-0.9,0.8c-0.5,0.7-1.4,1.3-2,1.9c-1.5,1.4-2.9,2.9-4.2,4.5
					c-2.2,2.6-4.2,5.5-6,8.4C80.8,301.5,81.5,301.9,81.7,301.5L81.7,301.5z"/>
			</g>
		</g>
		<g>
			<path class="st3" d="M76.2,286.8c5.4-6.9,11-13.7,16.7-20.4"/>
		</g>
		<g>
			<g>
				<path class="st2" d="M90.1,279.4c2.9-3.8,5.4-7.8,7.6-12.1c0.2-0.4-0.4-0.8-0.6-0.4c-2.2,4.3-4.7,8.3-7.6,12.1
					C89.2,279.4,89.8,279.8,90.1,279.4L90.1,279.4z"/>
			</g>
		</g>
		<g>
			<g>
				<path class="st2" d="M97.7,266.5c0.3,4.3-1,8.2-3.9,11.4c-0.3,0.4,0.2,0.9,0.5,0.5c3-3.3,4.5-7.5,4.1-11.9
					C98.4,266,97.7,266,97.7,266.5L97.7,266.5z"/>
			</g>
		</g>
		<g>
			<g>
				<path class="st2" d="M98.7,270.2c0.4,3.7-0.4,7.2-2.3,10.4c-0.2,0.4,0.4,0.8,0.6,0.4c2-3.3,2.8-7,2.4-10.8
					C99.4,269.8,98.7,269.7,98.7,270.2L98.7,270.2z"/>
			</g>
		</g>
		<g>
			<path class="st3" d="M82.7,304.5c5.2-4.9,9.4-10.8,12.3-17.3"/>
		</g>
	</g>
	<g id="torso">
		<path class="st13" d="M11.4,171.5c-0.5,4.5-1.1,10.9-0.8,18.7c0.1,3.5,0.4,6.6,0.7,9.8c2.3,20.7,6.6,38.6,6.6,38.6
			c8.7,35.8,24.1,66.6,24.1,66.6c12.4,24.9,26.5,44.5,38.6,59c3.8,0.3,9.3,0.3,15.6-0.9c14-2.6,23.2-9.3,30.8-15
			c8.5-6.3,23.3-17.7,30.6-37.9c1.8-5,2.7-9.4,3.2-12.4c-1.8-6.9-4.7-15.3-9.5-24.3c-3-5.7-6.2-10.5-9.2-14.5
			c-0.3-5.1-0.8-12.1-1.5-20.4c-0.8-9.6-1.7-21.2-3.4-36.1c-0.8-7-1.9-16.2-3.5-27.1c-11.7-4.9-21.8-7.7-29.2-9.4
			c-11.6-2.7-36.2-8.1-66.7-2.4C26.5,166,17.5,169.1,11.4,171.5z"/>
		<g>
			<path class="st3" d="M11.4,171.5c8.3-4,17.3-6.1,26.4-7.6c32.2-5,65.8-0.9,95.9,11.7"/>
		</g>
		<g>
			<g>
				<path class="st1" d="M10.2,191.3c4.9,61.8,28.4,121.3,66.9,169.8c0.3,0.4,0.8-0.2,0.5-0.5c-38.4-48.4-61.8-107.7-66.7-169.3
					C10.9,190.8,10.1,190.8,10.2,191.3L10.2,191.3z"/>
			</g>
		</g>
		<g>
			<path class="st3" d="M136.5,196c2.3,20.7,4.2,41.4,5.6,62.2"/>
		</g>
		<g>
			<path class="st3" d="M146.3,264.1c4.5,9.7,8.6,19.6,12.4,29.7"/>
		</g>
		<g>
			<path class="st3" d="M80.6,364.3c7.9,0.6,15.9-0.4,23.5-2.9c15.6-5.2,28.4-16.5,39.2-28.9c8-9.3,15.3-19.9,17.4-32.1"/>
		</g>
	</g>
	<g id="hand_right">
		<path class="st5" d="M175.2,124.1c4.3,5.1,8.7,10.2,13,15.3c0.9-0.5,1.8-0.9,2.7-1.4c0.1,1.3,0.2,2.6,0.3,3.9
			c7.7,8.7,15.3,17.3,23,26c0.2,0.1,0.9,0.6,1.9,0.3c0,0,0.7-0.2,1.2-0.8c0.8-1,0.5-2.8-0.5-4.5c-1.2-1.3-2.4-2.6-3.6-3.9
			c-12.1-13.1-23.6-26.2-34.6-39.5c-1.9-1.1-3.8-2.3-5.6-3.4C173.8,118.9,174.5,121.5,175.2,124.1z"/>
		<path class="st4" d="M194.3,138c-0.3-2.9-0.6-5.8-0.8-8.7c1.4,0.5,3.1,1.3,4.9,2.5c2.2,1.4,3.9,2.9,5.1,4.2
			c0.6,2.2,1.2,4.6,1.7,7.4c0.5,2.7,0.8,5.2,0.9,7.5c0.1,0.2,0.1,0.5,0,0.5c-0.4,0.2-2.6-2.7-3.8-4.2
			C200.6,144.9,198,141.8,194.3,138z"/>
		<path class="st4" d="M191,138c0,1.2,0,2.5,0,3.7c2.6,2.9,5.3,5.8,8,8.7c2,2.2,4,4.3,6,6.4c-1.2,0.9-2.5,1.9-3.7,3.1
			c-2,1.9-3.6,3.7-4.9,5.4c-2.8,5.3-8.2,6.8-11,5.1c-1.8-1.2-2.6-3.9-2.4-6.6c-0.1-1.8-0.2-4.4,0.1-7.4c0.3-3.7,0.7-7.3,2.6-11.2
			C186.5,143.4,188.1,140.7,191,138z"/>
		<path class="st13" d="M137.4,177c-1.5-0.6-3.5-1.1-5.7-0.5c-7,1.7-9.6,12.5-11,18.6c-1.7,7.1-3.5,19.8,0.9,36.7
			c4.9,5.2,9.1,9.3,12.3,12.2c7.8,7.3,14.4,13.4,24,19.5c1.7,1.1,5.2,4.9,10.9,6.1c3.8,0.8,6,0.1,6.6-0.1c2.8-0.9,4.6-3,6.6-6.2
			c4.8-7.6,6-14.9,6-14.9c3.4-20.8,5.1-31.1,5.1-32.9c0.5-11.6,1.6-28.1,3.8-50.7c-0.7-0.8-2-2-3.9-2.7c-4.9-1.8-9.4,1.2-9.9,1.6
			c-1.4,4.2-2.8,8.5-4.2,12.7c-4.1,12.4-7.8,24.7-11.2,36.7c-5.5-5.9-11.2-12.3-16.9-19.3C145.9,188.2,141.5,182.5,137.4,177z"/>
		<g>
			<path class="st3" d="M137.4,177c11.1,13.6,22.3,27.3,33.4,40.9"/>
		</g>
		<g>
			<path class="st3" d="M168,211.6c5-15.3,9.7-30.7,14.2-46.1"/>
		</g>
		<g>
			<g>
				<path class="st2" d="M183.7,163.9c4-2.9,9.6-2.4,12.9,1.3c0.3,0.4,0.9-0.2,0.5-0.5c-3.5-3.9-9.6-4.5-13.8-1.4
					C182.9,163.5,183.3,164.1,183.7,163.9L183.7,163.9z"/>
			</g>
		</g>
		<g>
			<g>
				<path class="st1" d="M121.4,232c10.6,11.2,22.1,21.5,34.6,30.5c4.6,3.3,10.2,8.1,16.3,7.9c5.2-0.2,8.5-4.2,10.9-8.4
					c7-12.2,8-27.7,9.7-41.4c2.1-17.2,3.1-34.6,3-51.9c0-0.5-0.8-0.5-0.8,0c0,14.1-0.6,28.3-2,42.3c-1.3,13.7-2.6,28.2-6.8,41.4
					c-2.4,7.5-7.3,19-17.1,16.7c-6.3-1.4-12.2-6.8-17.3-10.6c-10.8-8.2-20.9-17.3-30.2-27.2C121.6,231.1,121,231.7,121.4,232
					L121.4,232z"/>
			</g>
		</g>
		<g>
			<path class="st3" d="M183,163.7c0.3-4.7,0.9-9.4,1.7-14c0.7-4.3,2-9,5.7-11.2"/>
		</g>
		<g>
			<path class="st3" d="M197.4,163.5c2.8-2,5.3-4.4,7.3-7.2"/>
		</g>
		<g>
			<g>
				<path class="st2" d="M191.1,138c-0.4,2.5-0.7,4.9-1.1,7.4c-0.1,0.5,0.7,0.7,0.7,0.2c0.4-2.5,0.7-4.9,1.1-7.4
					C191.9,137.8,191.2,137.6,191.1,138L191.1,138z"/>
			</g>
		</g>
		<g>
			<path class="st3" d="M191.8,142.2c7.5,8.6,15,17.1,22.5,25.7"/>
		</g>
		<g>
			<path class="st3" d="M175.7,124.4c3.8,5,7.9,9.8,12.1,14.4"/>
		</g>
		<g>
			<g>
				<path class="st1" d="M175.7,123.6c0-1.5,1-2.8,2.4-3.1c0.5-0.1,0.3-0.8-0.2-0.7c-1.7,0.4-3,2-3,3.8
					C175,124,175.8,124,175.7,123.6L175.7,123.6z"/>
			</g>
		</g>
		<g>
			<g>
				<path class="st2" d="M175.4,123.1c-1-2.1-1.7-4.4-2-6.7c-0.1,0.2-0.2,0.3-0.4,0.5c1,0.1,1.9,0.4,2.7,1c0.4,0.3,0.9-0.2,0.5-0.5
					c-1-0.8-2-1.2-3.2-1.3c-0.3,0-0.4,0.3-0.4,0.5c0.4,2.4,1.1,4.7,2.1,6.9C175,123.9,175.6,123.5,175.4,123.1L175.4,123.1z"/>
			</g>
		</g>
		<g>
			<path class="st3" d="M178.7,119.7c12.3,14.8,25,29.3,38.2,43.3"/>
		</g>
		<g>
			<path class="st3" d="M214.6,168.2c0.7-0.1,1.3,0,2,0.2c1.3-1,1.6-3,0.8-4.4"/>
		</g>
		<g>
			<g>
				<path class="st2" d="M193.6,129.6c2.2,3.5,3.5,7.4,4,11.5c0.1,0.5,0.8,0.5,0.8,0c-0.5-4.3-1.9-8.2-4.1-11.9
					C194,128.8,193.3,129.2,193.6,129.6L193.6,129.6z"/>
			</g>
		</g>
		<g>
			<g>
				<path class="st2" d="M195.4,130.2c2.7,4.7,4.5,9.8,5.4,15.2c0.1,0.5,0.8,0.3,0.7-0.2c-0.9-5.5-2.7-10.6-5.5-15.3
					C195.8,129.4,195.1,129.8,195.4,130.2L195.4,130.2z"/>
			</g>
		</g>
		<g>
			<g>
				<path class="st2" d="M198.9,132.9c2.5,3.9,4,8.1,4.6,12.7c0.1,0.5,0.8,0.5,0.8,0c-0.6-4.7-2.1-9.1-4.7-13
					C199.3,132.1,198.7,132.5,198.9,132.9L198.9,132.9z"/>
			</g>
		</g>
		<g>
			<path class="st3" d="M202.8,135.4c2,4.9,3.1,10.2,3.2,15.5"/>
		</g>
	</g>
	<g id="head">
		<path class="st0" d="M92,137.9c1.1-0.5,2.6-1.4,4.3-2.5c1.9-1.3,3.6-2.5,5.2-4.4c1.6-2,3.1-3.8,3-6.3c-0.2-3.3-3.1-5.4-3.4-5.6
			c-2.7-1.8-5.8-1.3-8.7-0.8c-2.7,0.5-7.7,1.8-13.1,6.3c-1.2-0.8-3.9-2.4-7.6-2.4c-6.5,0.1-10.5,5.2-11.1,6c-0.7,0.9-3.1,4.1-3,7.8
			c0,0.5,0.1,1,0.1,1.9c0,0,0,3-1,5.6c-1,2.9-3.2,4.3-5.3,6.3c-4.1,3.8-6.3,7.8-8.1,11.2c-1.2,2.2-3.4,6.5-4.3,12.4
			c-0.5,3.3-1.3,9.5,1.7,16.5c3.2,7.6,9,11.5,10.7,12.6c7.3,4.6,14.4,4.4,16.8,4.3c6.6-0.3,11.3-2.8,13.4-3.9
			c6.3-3.4,9.8-7.9,11.8-10.5c1.7-2.3,5.9-8,7.6-16.6c1.5-8.1-0.1-14.3-1.5-20.2C98.3,151.4,96.2,145,92,137.9z"/>
		<path class="st8" d="M79.3,124.6c1.1,0.2,3.4,0.9,5.5,2.8c1.6,1.5,2.5,3.2,2.8,4.2c0.1-0.4,0.7-2.9-0.8-5
			C85.3,124.3,82.2,123.5,79.3,124.6z"/>
		<path class="st4" d="M99.6,133c0.5,0.7,3.8,5.7,2.7,10.8c-0.2,0.8-0.6,2.7-2.1,4.5c-0.9,1.1-1.9,1.7-2.5,2.1
			c-0.7-2.2-1.6-4.7-2.9-7.3c-0.9-1.9-1.9-3.6-2.8-5.2C94.5,136.3,97.1,134.6,99.6,133z"/>
		<g>
			<path class="st3" d="M70.8,123c-1.3-1-3.1-0.3-4.5,0.5c-4.7,2.7-8.9,7.3-8.8,12.7c0,1.3,0.3,2.6,0.2,4c-0.2,3.5-3,6.2-5.4,8.7
				c-5.5,5.7-10.1,12.5-12.4,20.2c-2.3,7.6-2,16.2,1.7,23.2c2.2,4.3,5.7,8,9.8,10.5c2.7,1.7,5.6,2.9,8.7,3.6
				c10.6,2.5,22.2-1.6,29.8-9.5c7.6-7.8,11.2-19,11-29.9s-4.1-21.5-9.9-30.7c-2.1-3.4-4.6-6.6-7.7-9.1s-7-4.2-10.9-4.2"/>
		</g>
		<g>
			<path class="st3" d="M79.3,124.6c2.9-2.1,6-4.1,9.4-5.3c3.4-1.2,7.1-1.7,10.6-0.8c2,0.5,4.1,1.6,4.9,3.5c0.8,1.8,0.3,3.9-0.6,5.7
				c-1.5,3.3-4.1,6-7.3,7.8"/>
		</g>
		<g>
			<path class="st3" d="M99.6,134c1.3,2.2,2.2,4.7,2.6,7.2c0.2,1.4,0.2,2.8-0.2,4.2c-0.7,2.1-2.5,3.7-4.4,5"/>
		</g>
	</g>
</g>
</svg>
