<?xml version="1.0" encoding="utf-8"?>
<!-- Generator: Adobe Illustrator 23.0.3, SVG Export Plug-In . SVG Version: 6.00 Build 0)  -->
<svg version="1.1" xmlns="http://www.w3.org/2000/svg" xmlns:xlink="http://www.w3.org/1999/xlink" x="0px" y="0px"
	 viewBox="0 0 501.4 572.2" style="enable-background:new 0 0 501.4 572.2;" xml:space="preserve">
<style type="text/css">
	.st0{fill:#202124;}
	.st1{fill:#FFFFFF;stroke:#202124;stroke-miterlimit:10;}
	.st2{fill:#e63946;}
	.st3{fill:#eb6e78;}
	.st4{fill:#FFFFFF;}
</style>
<g id="character">
	<g id="leg_left">
		<path class="st2" d="M198.6,555.7c-0.9,4.3-1.8,8.6-2.6,12.8c1.4,0.5,3.1,0.9,5.1,1.1c3.8,0.3,6.9-0.4,8.8-1.1
			c-0.3-3.8-0.7-7.7-1-11.5C205.5,556.6,202.1,556.2,198.6,555.7z"/>
		<path class="st4" d="M199.8,420c-0.4,27.7-0.7,55.4-0.9,83.1c-0.1,17.6-0.2,35.1-0.3,52.7c0.2,0.6,0.9,2.2,2.5,3.2
			c2,1.3,4.7,1.2,6.9-0.2c1.1-5.1,2.7-13,4.6-22.7c7.3-36,8.8-45,12.2-60.2c2.3-10.4,5.9-25.5,11.1-43.9c1.8-7.8-0.7-11.7-1.5-12.7
			C229.5,412.1,214.8,410.9,199.8,420z"/>
		<g>
			<g>
				<path class="st0" d="M199,420.4c-0.2,44.6-0.4,89.1-0.6,133.7c0,0.5,0.7,0.5,0.8,0c0.2-44.6,0.4-89.1,0.6-133.7
					C199.7,419.9,199,419.9,199,420.4L199,420.4z"/>
			</g>
		</g>
		<g>
			<g>
				<path class="st0" d="M232.5,439.1c-8.6,39.2-17.1,78.3-24,117.8c-0.1,0.5,0.6,0.7,0.7,0.2c6.8-39.5,15.4-78.7,24-117.8
					C233.3,438.9,232.6,438.7,232.5,439.1L232.5,439.1z"/>
			</g>
		</g>
		<g>
			<g>
				<path class="st0" d="M198.8,557.6c2.4,2.7,6.4,3.3,9.5,1.5c0.4-0.2,0-0.9-0.4-0.6c-2.9,1.6-6.4,1-8.6-1.4
					C199,556.7,198.4,557.2,198.8,557.6L198.8,557.6z"/>
			</g>
		</g>
		<g>
			<g>
				<path class="st4" d="M197.4,567.5c3.7,1.1,7,1.7,10.7,0.2c0.4-0.2,0.2-0.9-0.2-0.7c-3.5,1.5-6.8,0.9-10.3-0.2
					C197.2,566.6,197,567.3,197.4,567.5L197.4,567.5z"/>
			</g>
		</g>
	</g>
	<g id="leg_right">
		<path class="st2" d="M250.2,562.5c0.2,3.3,0.4,6.5,0.6,9.8c23.3-0.2,35-1.3,35.2-3.3c0.1-1.7-8.7-4.2-26.6-7.4
			C256.3,561.9,253.3,562.2,250.2,562.5z"/>
		<path class="st4" d="M217.8,422.4c1.6,5.7,3.3,11.5,4.9,17.2c2.4,12.1,4.8,24.2,7.4,36.5c6.3,29.6,13,58.4,20,86.4
			c0.5,0.4,1.8,1.6,3.8,1.8c3,0.3,5.1-1.6,5.4-1.9c-0.2-3.4-0.6-8.2-0.9-14c-1.8-28.8-2.9-54.2-3.6-75.1c-0.5-16-1-34.9-1.3-56.2
			c-3.4,0.9-7,1.8-10.8,2.5C233.7,421.4,225.3,422.2,217.8,422.4z"/>
		<g>
			<g>
				<path class="st0" d="M253.2,417.1c0.6,48.5,2.6,96.9,5.9,145.3c0,0.5,0.8,0.5,0.8,0c-3.3-48.4-5.2-96.8-5.9-145.3
					C254,416.7,253.2,416.7,253.2,417.1L253.2,417.1z"/>
			</g>
		</g>
		<g>
			<g>
				<path class="st0" d="M222,437.5c8.1,41.7,17.4,83.1,28.1,124.2c0.1,0.5,0.8,0.3,0.7-0.2c-10.7-41.1-20-82.5-28.1-124.2
					C222.6,436.8,221.9,437,222,437.5L222,437.5z"/>
			</g>
		</g>
		<g>
			<g>
				<path class="st0" d="M251.3,563.1c1.9,1.9,4.9,2.4,7.3,1.1c0.4-0.2,0-0.9-0.4-0.6c-2.1,1.1-4.7,0.7-6.4-1
					C251.5,562.2,251,562.7,251.3,563.1L251.3,563.1z"/>
			</g>
		</g>
		<g>
			<g>
				<path class="st4" d="M263.8,562.5c-0.3,0.7-1,4.1,0.6,3.8c0.6-0.1,0.9-0.8,1-1.4c0.1-0.8-0.1-1.6-0.5-2.3
					c-0.3-0.4-0.9,0-0.6,0.4c0.2,0.4,0.4,0.8,0.4,1.2c0,0.2,0,1.4-0.4,1c-0.2-0.2-0.1-1-0.1-1.2c0-0.5,0.2-1,0.4-1.4
					C264.7,562.3,264,562.1,263.8,562.5L263.8,562.5z"/>
			</g>
		</g>
		<g>
			<g>
				<path class="st4" d="M264.7,562.1c-0.3-0.2-0.5-0.5-0.6-0.8c-0.1-0.3-0.1-0.8,0.1-1c0.3-0.3,0.7,0.2,0.7,0.5
					c0.1,0.4-0.1,0.8-0.1,1.1c-0.1,0.5,0.6,0.7,0.7,0.2c0.2-0.7,0.4-1.5-0.1-2.1c-0.3-0.4-0.9-0.7-1.4-0.4c-0.6,0.3-0.7,0.9-0.7,1.5
					c0.1,0.7,0.4,1.3,1,1.7C264.7,563,265.1,562.4,264.7,562.1L264.7,562.1z"/>
			</g>
		</g>
		<g>
			<g>
				<path class="st4" d="M267.1,563.2c0.5,0.6,0.8,1.3,0.6,2.1c-0.1,0.5,0.6,0.7,0.7,0.2c0.3-1,0-2-0.7-2.8
					C267.3,562.3,266.8,562.8,267.1,563.2L267.1,563.2z"/>
			</g>
		</g>
		<g>
			<g>
				<path class="st4" d="M269.1,563.4c0.6,0.5,0.9,1.3,0.7,2.1c-0.1,0.5,0.6,0.7,0.7,0.2c0.3-1-0.1-2.1-0.9-2.8
					C269.2,562.6,268.7,563.1,269.1,563.4L269.1,563.4z"/>
			</g>
		</g>
		<g>
			<g>
				<path class="st4" d="M271.4,563.8c0.7,0.5,1,1.4,0.8,2.3c-0.1,0.5,0.6,0.7,0.7,0.2c0.4-1.2-0.1-2.4-1.1-3.1
					C271.3,562.9,271,563.5,271.4,563.8L271.4,563.8z"/>
			</g>
		</g>
		<g>
			<g>
				<path class="st4" d="M251.7,571.7c6.5-0.4,13-0.8,19.5-1.2c0.5,0,0.5-0.8,0-0.8c-6.5,0.4-13,0.8-19.5,1.2
					C251.2,571,251.2,571.7,251.7,571.7L251.7,571.7z"/>
			</g>
		</g>
	</g>
	<g id="hand_left">
		<path class="st4" d="M179.7,434.5c0.5,3.1,0.6,5.6,0.7,7.2c0.2,4-0.2,6,0.8,9.1c0.6,2.1,1.3,4.1,3,4.7c1.6,0.6,4.1-0.1,4.8-1.8
			c0.4-0.9,0.2-1.8,0-2.3c-0.7-2.2-1.4-4.4-2.1-6.5c0.5,0,1.7,0,2.4-0.7c0.4-0.4,0.8-1.1,0.6-3.5c-0.2-2-0.7-3.6-1.7-6.4
			c-1.7-4.5-2.1-4.8-2.4-4.9C183.6,428.7,180,434.1,179.7,434.5z"/>
		<path class="st4" d="M182.4,336.3c-0.6,1.5-1.5,3.8-2.3,6.7c-1,3.8-1.3,6.8-1.5,8.4c-1.3,13-2,19.6-2.1,23.5
			c-0.6,16.5,0.4,29.6,1.2,40.1c0.6,8.1,1.4,14.8,1.9,19.4c0.5,0.3,1.7,1.1,3.4,1.1c2.7,0,4.4-1.9,4.7-2.2c0.1-3.3,0.4-7.4,0.8-12.3
			c0.3-3,1-10.3,2.6-19.6c0.6-3.8,1.9-11,4.2-19.9c2.1-8,5.2-18.4,10.2-30.4C197.9,346.2,190.2,341.3,182.4,336.3z"/>
		<g>
			<g>
				<path class="st0" d="M182.1,336.1c-3.1,6.7-3.8,14.4-4.6,21.7c-0.9,8.2-1.4,16.6-1.4,24.9c-0.1,17.3,1.4,34.6,3.3,51.8
					c0.1,0.5,0.8,0.5,0.8,0c-1.8-15.9-3.2-31.9-3.3-47.9c0-7.7,0.2-15.3,0.9-23c0.8-8.9,1.3-18.8,5.1-27.1
					C182.9,336.1,182.3,335.7,182.1,336.1L182.1,336.1z"/>
			</g>
		</g>
		<g>
			<g>
				<path class="st0" d="M198.2,369.4c-5.5,20.1-9.1,40.6-10.8,61.3c0,0.5,0.7,0.5,0.8,0c1.7-20.7,5.3-41.1,10.8-61.1
					C199,369.1,198.3,368.9,198.2,369.4L198.2,369.4z"/>
			</g>
		</g>
		<g>
			<g>
				<path class="st0" d="M181,435.1c1.9,2,4.5,0.2,6-1.4c0.3-0.4-0.2-0.9-0.5-0.5c-1.2,1.3-3.3,3.1-5,1.4
					C181.2,434.2,180.7,434.7,181,435.1L181,435.1z"/>
			</g>
		</g>
		<g>
			<g>
				<path class="st0" d="M187.5,433.6c1.6,3,2.3,6.2,2.1,9.6c0,0.5,0.7,0.5,0.8,0c0.1-3.5-0.6-6.9-2.2-10
					C187.9,432.8,187.3,433.1,187.5,433.6L187.5,433.6z"/>
			</g>
		</g>
		<g>
			<g>
				<path class="st0" d="M187.1,440.9c0,1.4,0.4,2.8,1,4.1c0.2,0.4,0.9,0.1,0.6-0.4c-0.6-1.2-0.9-2.4-0.9-3.7
					C187.8,440.4,187.1,440.4,187.1,440.9L187.1,440.9z"/>
			</g>
		</g>
		<g>
			<g>
				<path class="st0" d="M179.9,436.4c0.2,6.4-1.3,15.7,4.8,19.9c0.4,0.3,0.8-0.4,0.4-0.6c-5.7-3.9-4.3-13.2-4.5-19.3
					C180.6,435.9,179.9,435.9,179.9,436.4L179.9,436.4z"/>
			</g>
		</g>
		<g>
			<g>
				<path class="st0" d="M182.4,447.1c0.2,3,1.5,5.8,3.7,7.9c0.4,0.3,0.9-0.2,0.5-0.5c-2.1-1.9-3.3-4.5-3.5-7.3
					C183.1,446.6,182.4,446.6,182.4,447.1L182.4,447.1z"/>
			</g>
		</g>
		<g>
			<g>
				<path class="st0" d="M184.5,446.7c0.7,2.5,1.5,4.9,2.6,7.2c0.2,0.4,0.8,0.1,0.6-0.4c-1-2.3-1.8-4.6-2.5-7.1
					C185.1,446,184.4,446.2,184.5,446.7L184.5,446.7z"/>
			</g>
		</g>
		<g>
			<g>
				<path class="st0" d="M186.3,444.2c0.7,3,1.7,5.9,2.9,8.8c0.2,0.4,0.8,0.1,0.6-0.4c-1.2-2.8-2.1-5.7-2.8-8.6
					C187,443.5,186.2,443.7,186.3,444.2L186.3,444.2z"/>
			</g>
		</g>
	</g>
	<g id="torso">
		<path class="st4" d="M182.4,336.3c0.3,3.4,0.9,8.5,1.5,14.7c2.3,22.7,2.2,22.3,2.5,24.3c2.1,13.7,5.6,24.5,7.8,31.1
			c1.9,5.8,3.7,10.5,5.1,13.9c6.3,1.9,11.7,2.7,15.7,3c6.3,0.6,18.3,0.9,32.1-3.8c2.8-0.9,5-1.9,6.5-2.5c0.9-4.8,1.7-9.7,2.4-14.6
			c3.5-23.1,5.6-45.2,6.6-66.1c-5.4-2.5-13-5.3-22.4-7c-13.3-2.5-23.9-1.6-28.6-1.1C199.1,329.6,189.2,333.2,182.4,336.3z"/>
		<g>
			<g>
				<path class="st0" d="M182.2,336.9c25.1-11.7,54.3-11.7,79.4-0.2c0.4,0.2,0.8-0.4,0.4-0.6c-25.4-11.7-54.9-11.6-80.2,0.2
					C181.4,336.5,181.8,337.1,182.2,336.9L182.2,336.9z"/>
			</g>
		</g>
		<g>
			<g>
				<path class="st0" d="M183.5,349.6c0.9,23.7,5.9,46.9,14.8,68.8c0.2,0.4,0.9,0.2,0.7-0.2c-9-21.9-14-45-14.8-68.6
					C184.2,349.1,183.5,349.1,183.5,349.6L183.5,349.6z"/>
			</g>
		</g>
		<g>
			<g>
				<path class="st0" d="M262.2,347.7c-1.5,22.9-4.5,45.7-9,68.2c-0.1,0.5,0.6,0.7,0.7,0.2c4.5-22.6,7.6-45.4,9.1-68.4
					C263,347.2,262.2,347.2,262.2,347.7L262.2,347.7z"/>
			</g>
		</g>
		<g>
			<g>
				<path class="st0" d="M199.7,420.3c17.5,6,36.4,5,53.2-2.7c0.4-0.2,0.1-0.8-0.4-0.6c-16.6,7.6-35.3,8.5-52.6,2.6
					C199.5,419.4,199.3,420.2,199.7,420.3L199.7,420.3z"/>
			</g>
		</g>
	</g>
	<g id="hand_right">
		<path class="st4" d="M270.1,430.8c-0.2,1-0.5,2.6-0.9,4.5c-1.1,5.1-1.8,6.9-0.9,7.7c0.4,0.3,1.1,0.6,3.2-0.2
			c-0.3,2.5-0.7,5.1-1,7.6c0.2,0.5,0.7,1.4,1.7,2.1c1.3,1,2.7,1,3.2,1c0.7-2,1.6-5,2-8.8c0.3-2.8,0.2-4.9,0-7.2
			c-0.1-2.5-0.5-5.8-1.3-9.7C274.2,428.7,272.1,429.8,270.1,430.8z"/>
		<path class="st4" d="M262.6,336.4c-2.2,0.6-4.6,1.6-7,3.4c-9.7,7.1-9.8,20.1-9.8,22.1c2.5,7.3,4.9,14.6,7.4,21.9
			c5.2,15.3,10.3,30.7,15.4,46.1c0.5,0.4,1.4,1,2.8,1.3c2.4,0.4,4.2-0.7,4.7-1c0.2-2.4,0.4-6,0.4-10.3c0.2-17.4-2-30.8-4.5-44.6
			c-1.9-10.8-3.9-18.9-4.9-23.1C265.5,346.1,263.9,340.7,262.6,336.4z"/>
		<g>
			<g>
				<path class="st0" d="M262.2,336.5c9.2,30,13.9,61.1,14,92.4c0,0.5,0.8,0.5,0.8,0c-0.1-31.4-4.8-62.6-14-92.6
					C262.8,335.8,262.1,336,262.2,336.5L262.2,336.5z"/>
			</g>
		</g>
		<g>
			<g>
				<path class="st0" d="M245.4,362c7.5,22.2,15,44.4,22.5,66.7c0.2,0.5,0.9,0.3,0.7-0.2c-7.5-22.2-15-44.4-22.5-66.7
					C246,361.4,245.2,361.6,245.4,362L245.4,362z"/>
			</g>
		</g>
		<g>
			<g>
				<path class="st0" d="M268.3,430.1c2.3,1.8,5.4,2,7.9,0.4c0.4-0.3,0-0.9-0.4-0.6c-2.2,1.4-4.9,1.3-7-0.2
					C268.5,429.3,267.9,429.8,268.3,430.1L268.3,430.1z"/>
			</g>
		</g>
		<g>
			<g>
				<path class="st0" d="M272.1,433.3c0.2,2.2,1.3,4,1.8,6.1c0.8,3.2,0.6,6.5,0.4,9.7c0,0.5,0.7,0.5,0.8,0c0.2-2.7,0.3-5.5-0.1-8.2
					c-0.4-2.7-1.9-5-2.1-7.7C272.8,432.9,272,432.9,272.1,433.3L272.1,433.3z"/>
			</g>
		</g>
		<g>
			<g>
				<path class="st0" d="M269.4,432.5c-0.4,2-0.8,4-1.1,6c-0.2,1.2-0.9,2.9-0.5,4.2c0.4,1.3,2.1,1.6,2.6,0.2
					c0.2-0.5-0.6-0.6-0.7-0.2c-1.2-0.2-1.6-0.8-1.2-1.8c0-0.2,0.1-0.5,0.1-0.7c0.1-0.9,0.3-1.7,0.5-2.6c0.3-1.6,0.6-3.2,0.9-4.9
					C270.2,432.2,269.4,432,269.4,432.5L269.4,432.5z"/>
			</g>
		</g>
		<g>
			<g>
				<path class="st0" d="M276.9,435.6c0.8,6.1,0.2,12-1.8,17.8c-0.2,0.5,0.6,0.7,0.7,0.2c2-5.9,2.6-11.8,1.8-18
					C277.5,435.1,276.8,435.1,276.9,435.6L276.9,435.6z"/>
			</g>
		</g>
		<g>
			<g>
				<path class="st0" d="M271.1,442.7c0.3,2.6,0,5.1-1,7.5c-0.2,0.4,0.5,0.6,0.7,0.2c1-2.5,1.4-5.1,1-7.7
					C271.8,442.3,271.1,442.3,271.1,442.7L271.1,442.7z"/>
			</g>
		</g>
		<g>
			<g>
				<path class="st0" d="M272.4,443.8c0.6,2.9,0.5,5.7-0.5,8.5c-0.2,0.5,0.6,0.7,0.7,0.2c1-2.9,1.2-5.9,0.5-8.9
					C273,443.2,272.3,443.4,272.4,443.8L272.4,443.8z"/>
			</g>
		</g>
	</g>
	<g id="head">
		<path class="st0" d="M227,317c1.8-1.9,2.7-3.7,3.3-5c0.8-1.7,1.4-3.2,1.1-5.1c-0.1-0.7-0.3-2.2-1.5-3.3c-2-1.8-5.2-0.9-7.1-0.3
			c-3.6,1-6.1,3.2-7.5,4.7c-0.6-0.4-2.1-1.3-4.1-1.2c-0.7,0-2,0.1-3,1c-1.2,1.2-0.5,2.5-1.2,4.3c-0.7,1.9-2.6,3-6.3,5.2
			c-4,2.3-4,1.7-5.5,2.9c-3,2.3-4,5.6-5,9.1c-0.7,2.4-1.9,6.2-1.3,11.2c0.3,2.2,0.9,7,4.3,11c5.6,6.6,15.4,7.2,22,5.4
			c5.4-1.5,8.8-4.6,10-5.7c1.4-1.3,5.2-5,6.8-11.2c1.4-5.6,0.3-10.1-0.5-13C230.5,322.5,228.5,319.1,227,317z"/>
		<path class="st4" d="M216.7,308.3c0.9,0.4,2.1,1,3.3,1.8c1.7,1.3,2.9,2.7,3.6,3.7c0.1-0.4,0.7-2.2-0.2-3.8
			C222.3,308.1,219.5,307.2,216.7,308.3z"/>
		<path class="st4" d="M230.7,311.2c-0.3,0.7-0.6,1.4-1,2.1c-0.9,1.6-1.8,2.8-2.7,3.8c0.4,0.7,0.7,1.4,1.1,2.1
			c1.2,2.3,2.2,4.6,3.2,6.8c0.3-0.5,0.7-1.1,1-1.9c0.2-0.5,0.9-2.2,1-4.6c0.1-2.1-0.4-3.7-0.6-4.4
			C232.2,313.3,231.3,312,230.7,311.2z"/>
		<g>
			<g>
				<path class="st0" d="M210.8,306.6c-1.7-0.1-2.5,0.3-3.3,1.9c-1.4,2.8-1,5.3-4.1,7.3c-1.8,1.1-3.9,1.6-5.8,2.6
					c-5.6,3.1-7.7,9.1-8.6,15.2c-2.1,13.3,5,23.3,18.7,24.4c12.7,1,23.7-8.7,25.1-21.2c1.6-14.4-8.5-26.4-21.8-30.4
					c-0.5-0.1-0.7,0.6-0.2,0.7c12.1,3.6,21.8,14.1,21.4,27.2c-0.4,13-11.1,24-24.5,22.9c-7.1-0.6-14.2-3.8-17-10.7
					c-2.1-5.4-1.6-11.7-0.1-17.1c1-3.7,2.7-7.3,5.9-9.6c2.2-1.5,4.9-2,7.2-3.4c1.2-0.7,2.3-1.6,3-2.8c1.1-1.8,0.9-6.5,4-6.3
					C211.3,307.4,211.3,306.6,210.8,306.6L210.8,306.6z"/>
			</g>
		</g>
		<g>
			<g>
				<path class="st0" d="M215.6,308.4c2.8-3.5,7.4-5.6,11.9-4.7c6.8,1.4,2,10-0.8,13.1c-0.3,0.4,0.2,0.9,0.5,0.5
					c2.4-2.8,7.6-11,2.5-13.7c-5-2.6-11.5,0.2-14.8,4.2C214.8,308.2,215.3,308.7,215.6,308.4L215.6,308.4z"/>
			</g>
		</g>
		<g>
			<g>
				<path class="st0" d="M230.4,311.4c3,4.1,3.4,9.3,1,13.8c-0.2,0.4,0.4,0.8,0.6,0.4c2.5-4.7,2.1-10.3-1-14.6
					C230.7,310.6,230.1,311,230.4,311.4L230.4,311.4z"/>
			</g>
		</g>
	</g>
</g>
<g id="featured_products">
	<g id="headphones">
		<path class="st3" d="M223,41.7c-2.9,2.6-5.7,5.5-8.5,8.6c-21.6,24.4-27.6,53.7-29.2,73.1c5.7-0.4,11.5-0.7,17.2-1.1
			c0.6-5.5,1.8-14.1,5.1-24c4.6-13.8,11.8-35.4,31.4-44.7c4.5-2.1,14.2-5.8,28.8-3.7c-3-2.3-6.9-4.8-11.8-6.7
			C241.9,37.5,228.7,40.2,223,41.7z"/>
		<path class="st2" d="M223,41.7c11.1-3.4,18.8-2.1,23.8-0.3c24.4,8.8,38.1,50.5,30.2,103.6c6.1-5.3,12.2-10.6,18.2-15.9
			c2.9-39.4-5.6-72.2-22.5-85.4c-9.5-7.5-19.5-9.1-19.5-9.1C238.6,32.3,226.9,39.2,223,41.7z"/>
		<ellipse class="st1" cx="293.3" cy="171.3" rx="25.4" ry="44.7"/>
		<ellipse class="st1" cx="303.1" cy="171.3" rx="18" ry="31.7"/>
		<ellipse class="st1" cx="195.4" cy="160.6" rx="25.4" ry="44.7"/>
		<ellipse class="st1" cx="196.4" cy="162" rx="16.1" ry="31.7"/>
		<path class="st0" d="M194.9,130.5c2.8,3.4,6.7,9.1,9.4,16.9c1.3,3.7,4.1,12.1,2.8,23.1c-1.3,11.2-6.1,19.1-8.8,23.1
			c1.5-0.8,3.8-2.1,6-4.2c10.8-10.3,8.6-27.3,7.9-33c-0.6-5-2.7-22.1-12.7-25.3C197.7,130.4,196.1,130.4,194.9,130.5z"/>
		<g>
			<g>
				<path class="st3" d="M164.8,62.4c9.3-9.4,7.6-25.7,8.2-37.8c-0.9,0.4-1.7,0.7-2.6,1.1c5.1,4.5,11.7,3.5,18,2.7
					c7.4-0.9,14.6-2.4,20.9-6.3c1.6-1,0.1-3.6-1.5-2.6c-5.1,3.1-10.7,4.6-16.6,5.5c-5.8,0.9-14,2.8-18.8-1.4c-1-0.9-2.5-0.3-2.6,1.1
					c-0.6,11.2,1.2,27.1-7.3,35.7C161.3,61.6,163.4,63.7,164.8,62.4L164.8,62.4z"/>
			</g>
		</g>
		<g>
			<g>
				<path class="st3" d="M161.8,219.8c9.2,5.7,16,14.1,19.7,24.2c0.3,0.9,1.3,1.4,2.2,0.9c12.2-6.3,26.6-5.7,38.2,1.4
					c1.7,1,3.2-1.6,1.5-2.6c-12.6-7.7-28.1-8.2-41.3-1.4c0.7,0.3,1.5,0.6,2.2,0.9c-4-10.9-11.2-19.9-21.1-26
					C161.7,216.1,160.2,218.7,161.8,219.8L161.8,219.8z"/>
			</g>
		</g>
		<g>
			<g>
				<path class="st3" d="M293.4,10.8c6,18.8,29,17.2,44.4,21.5c-0.3-0.7-0.6-1.5-0.9-2.2c-7,11.7-6.8,26.2,0.5,37.8
					c1,1.6,3.6,0.1,2.6-1.5c-6.7-10.6-6.9-23.9-0.5-34.7c0.5-0.8,0-1.9-0.9-2.2c-14-3.9-36.8-2.2-42.3-19.4
					C295.7,8.2,292.8,9,293.4,10.8L293.4,10.8z"/>
			</g>
		</g>
		<g>
			<g>
				<path class="st3" d="M353.6,192.9c-7.3,2.7-13.9,10.4-18.5,16.4c-5,6.6-8.1,14.5-6.9,22.9c0.3,1.9,3.3,1.9,3,0
					c-1.1-8.2,2-15.7,7.1-22c4-5,10.1-12.1,16.2-14.3C356.2,195.1,355.5,192.2,353.6,192.9L353.6,192.9z"/>
			</g>
		</g>
		<g>
			<g>
				<path class="st3" d="M274,251.8c3.3-6,11.2-8.2,17.4-10c7.5-2.3,15.2-3.1,22.9-1.3c1.9,0.4,2.7-2.4,0.8-2.9
					c-8.8-2.1-17.7-1-26.2,1.8c-6.5,2.1-13.9,4.6-17.4,10.9C270.4,252,273,253.5,274,251.8L274,251.8z"/>
			</g>
		</g>
	</g>
</g>
</svg>
